<svg xmlns="http://www.w3.org/2000/svg" xmlns:xlink="http://www.w3.org/1999/xlink" viewBox="0 0 512 512" width="512" height="512" preserveAspectRatio="xMidYMid meet" style="width: 100%; height: 100%; transform: translate3d(0px, 0px, 0px); content-visibility: visible;"><defs><clipPath id="__lottie_element_29"><rect width="512" height="512" x="0" y="0"/></clipPath><clipPath id="__lottie_element_31"><path d="M0,0 L512,0 L512,512 L0,512z" fill="none"/></clipPath><clipPath id="__lottie_element_115"><path d="M0,0 L512,0 L512,512 L0,512z" fill="none"/></clipPath></defs><g clip-path="url(#__lottie_element_29)"><g clip-path="url(#__lottie_element_115)" transform="matrix(1,0,0,1,0,0)" opacity="1" style="display: none;"><g transform="matrix(-0.999244749546051,0.03877284377813339,0.03877284377813339,0.999244749546051,439.26531982421875,199.86563110351562)" opacity="1" style="display: block;"><path fill="rgb(250,144,22)" fill-opacity="1" d=" M87.38,252.7 C36.48,241.15 25.84,186.75 40.81,138.3 C62.9,66.75 120.75,36.68 188.14,30.47 C202.19,29.18 258.99,42.36 283.69,46.93 C316.97,53.09 350.67,98.5 361.62,145.52 C372.59,192.66 360.7,241.42 298.6,254.1 C227.81,268.55 150.37,267 87.38,252.7z"/><g opacity="1" transform="matrix(1,0,0,1,205.83900451660156,156.75)"><path stroke-linecap="round" stroke-linejoin="miter" fill-opacity="0" stroke-miterlimit="10" stroke="rgb(249,143,22)" stroke-opacity="1" stroke-width="20" d=" M-118.46399688720703,95.9489974975586 C-169.35499572753906,84.4000015258789 -179.9969940185547,30.003000259399414 -165.03399658203125,-18.448999404907227 C-142.93699645996094,-90.00399780273438 -85.09200286865234,-120.07499694824219 -17.695999145507812,-126.27799987792969 C-3.6470000743865967,-127.57099914550781 53.15299987792969,-114.38999938964844 77.85299682617188,-109.81700134277344 C111.12699890136719,-103.65699768066406 144.82899475097656,-58.25299835205078 155.7760009765625,-11.225000381469727 C166.7469940185547,35.90700149536133 154.85699462890625,84.6719970703125 92.75599670410156,97.35199737548828 C21.975000381469727,111.80400085449219 -55.47200012207031,110.24500274658203 -118.46399688720703,95.9489974975586z" fill="none"/></g></g><g transform="matrix(1.265380620956421,0.2922712564468384,-0.2922712564468384,1.265380620956421,413.3813781738281,248.9244384765625)" opacity="1" style="display: block;"><g opacity="1" transform="matrix(1,0,0,1,-5.5,0)"><path stroke-linecap="round" stroke-linejoin="round" fill-opacity="0" stroke="rgb(250,144,22)" stroke-opacity="1" stroke-width="20" d=" M-185.14100646972656,196.04400634765625 C-212.14100646972656,180.54400634765625 -222.7449951171875,157.13900756835938 -217,149 C-211,140.5 -196,164.5 -196,164.5" fill="none"/><path fill="rgb(255,213,39)" fill-opacity="1" d=" M-185.14100646972656,196.04400634765625 C-212.14100646972656,180.54400634765625 -222.7449951171875,157.13900756835938 -217,149 C-211,140.5 -196,164.5 -196,164.5"/></g></g><g transform="matrix(-0.999244749546051,0.03877284377813339,0.03877284377813339,0.999244749546051,439.26531982421875,199.86563110351562)" opacity="1" style="display: block;"><path fill="rgb(255,213,39)" fill-opacity="1" d=" M87.38,252.7 C36.48,241.15 25.84,186.75 40.81,138.3 C62.9,66.75 120.75,36.68 188.14,30.47 C202.19,29.18 258.99,42.36 283.69,46.93 C316.97,53.09 350.67,98.5 361.62,145.52 C372.59,192.66 360.7,241.42 298.6,254.1 C227.81,268.55 150.37,267 87.38,252.7z"/><g opacity="1" transform="matrix(1,0,0,1,205.83900451660156,156.75)"/></g><g transform="matrix(-0.999244749546051,0.03877284377813339,0.03877284377813339,0.999244749546051,422.17327880859375,290.3861083984375)" opacity="1" style="display: block;"><g opacity="1" transform="matrix(1,0,0,1,38.819000244140625,73.84600067138672)"><path stroke-linecap="round" stroke-linejoin="round" fill-opacity="0" stroke="rgb(252,238,33)" stroke-opacity="1" stroke-width="10" d=" M2.313999891281128,-25.96500015258789 C-8.1899995803833,-0.12999999523162842 -20.915000915527344,36.98099899291992 2.4260001182556152,55.56999969482422" fill="none"/></g></g><g transform="matrix(-0.999244749546051,0.03877284377813339,0.03877284377813339,0.999244749546051,132.43362426757812,345.0441589355469)" opacity="1" style="display: block;"><g opacity="1" transform="matrix(1,0,0,1,35.6879997253418,48.13999938964844)"><path stroke-linecap="round" stroke-linejoin="round" fill-opacity="0" stroke="rgb(255,255,255)" stroke-opacity="1" stroke-width="10" d=" M-2.2200000286102295,3.559999942779541 C3.309000015258789,-17.062000274658203 0.11999999731779099,-36.933998107910156 -11.678000450134277,-65.36100006103516" fill="none"/></g></g><g transform="matrix(-0.9868910908699036,0.16136711835861206,0.16136711835861206,0.9868910908699036,418.66461181640625,-18.284381866455078)" opacity="1" style="display: block;"><g opacity="1" transform="matrix(1,0,0,1,196.52099609375,174.67799377441406)"><path fill="rgb(255,212,39)" fill-opacity="1" d=" M139.04600524902344,92.73999786376953 C161.73699951171875,64.84600067138672 171.52099609375,30.104999542236328 164.11500549316406,-7.175000190734863 C148.4239959716797,-86.15599822998047 61.35599899291992,-149.67799377441406 -26.993999481201172,-132.12600708007812 C-115.34500122070312,-114.5739974975586 -171.52099609375,-22.594999313354492 -155.8300018310547,56.38600158691406 C-148.44400024414062,93.56600189208984 -121.86399841308594,132.46499633789062 -89.8550033569336,149.67799377441406"/><g opacity="1" transform="matrix(1,0,0,1,0,0)"/></g><g opacity="1" transform="matrix(1,0,0,1,196.52099609375,174.67799377441406)"><path stroke-linecap="round" stroke-linejoin="miter" fill-opacity="0" stroke-miterlimit="10" stroke="rgb(249,143,22)" stroke-opacity="1" stroke-width="10" d=" M139.04600524902344,92.73999786376953 C161.73699951171875,64.84600067138672 171.52099609375,30.104999542236328 164.11500549316406,-7.175000190734863 C148.4239959716797,-86.15599822998047 61.35599899291992,-149.67799377441406 -26.993999481201172,-132.12600708007812 C-115.34500122070312,-114.5739974975586 -171.52099609375,-22.594999313354492 -155.8300018310547,56.38600158691406 C-148.44400024414062,93.56600189208984 -121.86399841308594,132.46499633789062 -89.8550033569336,149.67799377441406" fill="none"/></g></g><g transform="matrix(0.9147261381149292,0.4040662944316864,0.4040662944316864,-0.9147261381149292,49.288780212402344,236.57717895507812)" opacity="1" style="display: block;"><g opacity="1" transform="matrix(1,0,0,1,49.17599868774414,105.06700134277344)"><path stroke-linecap="round" stroke-linejoin="round" fill-opacity="0" stroke="rgb(255,255,255)" stroke-opacity="1" stroke-width="10" d=" M7.406000137329102,-80.06800079345703 C-13.45199966430664,-51.96799850463867 -37.25299835205078,49.8129997253418 38.694000244140625,106.07599639892578" fill="none"/></g></g><g transform="matrix(0.9780836701393127,0.20819631218910217,-0.20819631218910217,0.9780836701393127,307.29620361328125,67.78102111816406)" opacity="1" style="display: block;"><g opacity="1" transform="matrix(1,0,0,1,71.9540023803711,84.74400329589844)"><path stroke-linecap="round" stroke-linejoin="round" fill-opacity="0" stroke="rgb(251,237,32)" stroke-opacity="1" stroke-width="10" d=" M46.95399856567383,59.74300003051758 C44.59400177001953,31.695999145507812 32.75299835205078,3.5139999389648438 13.333000183105469,-19.091999053955078 C-2.2239999771118164,-37.20100021362305 -22.645999908447266,-51.73099899291992 -46.95399856567383,-59.74300003051758" fill="none"/></g></g><g transform="matrix(-0.9585999250411987,-0.15897226333618164,-0.12237182259559631,1.0202709436416626,212.28414916992188,154.5006561279297)" opacity="1" style="display: block;"><g opacity="1" transform="matrix(1,0,0,1,24.476999282836914,27.06800079345703)"><path fill="rgb(0,0,0)" fill-opacity="1" d=" M20.375999450683594,6.052999973297119 C18.937000274658203,10.895999908447266 16.326000213623047,15.019000053405762 13.034000396728516,18.108999252319336 C7.513999938964844,23.290000915527344 0.07599999755620956,25.569000244140625 -6.973999977111816,23.475000381469727 C-14.951000213623047,21.104000091552734 -20.290000915527344,13.770000457763672 -21.349000930786133,5.083000183105469 C-21.784000396728516,1.5160000324249268 -21.496999740600586,-2.2799999713897705 -20.375999450683594,-6.053999900817871 C-19.34600067138672,-9.520000457763672 -17.716999053955078,-12.616999626159668 -15.666000366210938,-15.230999946594238 C-10.04699993133545,-22.392000198364258 -1.2699999809265137,-25.92300033569336 6.973999977111816,-23.472999572753906 C14.788999557495117,-21.150999069213867 20.070999145507812,-14.065999984741211 21.277999877929688,-5.610000133514404 C21.80900001525879,-1.8910000324249268 21.55299949645996,2.0929999351501465 20.375999450683594,6.052999973297119z"/><path stroke-linecap="butt" stroke-linejoin="miter" fill-opacity="0" stroke-miterlimit="4" stroke="rgb(0,0,0)" stroke-opacity="1" stroke-width="0" d=" M20.375999450683594,6.052999973297119 C18.937000274658203,10.895999908447266 16.326000213623047,15.019000053405762 13.034000396728516,18.108999252319336 C7.513999938964844,23.290000915527344 0.07599999755620956,25.569000244140625 -6.973999977111816,23.475000381469727 C-14.951000213623047,21.104000091552734 -20.290000915527344,13.770000457763672 -21.349000930786133,5.083000183105469 C-21.784000396728516,1.5160000324249268 -21.496999740600586,-2.2799999713897705 -20.375999450683594,-6.053999900817871 C-19.34600067138672,-9.520000457763672 -17.716999053955078,-12.616999626159668 -15.666000366210938,-15.230999946594238 C-10.04699993133545,-22.392000198364258 -1.2699999809265137,-25.92300033569336 6.973999977111816,-23.472999572753906 C14.788999557495117,-21.150999069213867 20.070999145507812,-14.065999984741211 21.277999877929688,-5.610000133514404 C21.80900001525879,-1.8910000324249268 21.55299949645996,2.0929999351501465 20.375999450683594,6.052999973297119z" fill="none"/><g opacity="1" transform="matrix(1,0,0,1,0,0)"/></g></g><g style="display: none;"><g><path fill="none"/><g/></g></g><g transform="matrix(-0.36255207657814026,-0.06012490391731262,-0.04628223553299904,0.3858766555786133,184.68734741210938,171.5938262939453)" opacity="1" style="display: block;"><g opacity="1" transform="matrix(0.6645900011062622,0,0,0.6645900011062622,25.833999633789062,-7.906000137329102)"><path fill="rgb(255,255,255)" fill-opacity="1" d=" M20.375999450683594,6.052999973297119 C18.937000274658203,10.895999908447266 16.326000213623047,15.019000053405762 13.034000396728516,18.108999252319336 C7.513999938964844,23.290000915527344 0.07500000298023224,25.569000244140625 -6.974999904632568,23.475000381469727 C-14.95199966430664,21.104000091552734 -20.290000915527344,13.770000457763672 -21.349000930786133,5.083000183105469 C-21.784000396728516,1.5160000324249268 -21.496999740600586,-2.2799999713897705 -20.375999450683594,-6.053999900817871 C-19.34600067138672,-9.520000457763672 -17.716999053955078,-12.616999626159668 -15.666000366210938,-15.230999946594238 C-10.04699993133545,-22.392000198364258 -1.2699999809265137,-25.92300033569336 6.973999977111816,-23.472999572753906 C14.788999557495117,-21.150999069213867 20.070999145507812,-14.065999984741211 21.277999877929688,-5.610000133514404 C21.80900001525879,-1.8910000324249268 21.55299949645996,2.0929999351501465 20.375999450683594,6.052999973297119z"/><g opacity="1" transform="matrix(1,0,0,1,0,0)"/></g></g><g transform="matrix(-0.8809797167778015,-0.13984601199626923,-0.11609522253274918,1.0212894678115845,343.9212341308594,149.8975830078125)" opacity="1" style="display: block;"><g opacity="1" transform="matrix(1,0,0,1,24.476999282836914,27.06800079345703)"><path fill="rgb(0,0,0)" fill-opacity="1" d=" M20.375999450683594,6.052999973297119 C16.52400016784668,19.017000198364258 4.2789998054504395,26.81800079345703 -6.974999904632568,23.475000381469727 C-18.22800064086914,20.131000518798828 -24.226999282836914,6.909999847412109 -20.375999450683594,-6.053999900817871 C-16.52400016784668,-19.01799964904785 -4.2789998054504395,-26.816999435424805 6.973999977111816,-23.472999572753906 C18.226999282836914,-20.1299991607666 24.22800064086914,-6.910999774932861 20.375999450683594,6.052999973297119z"/><path stroke-linecap="butt" stroke-linejoin="miter" fill-opacity="0" stroke-miterlimit="4" stroke="rgb(0,0,0)" stroke-opacity="1" stroke-width="0" d=" M20.375999450683594,6.052999973297119 C16.52400016784668,19.017000198364258 4.2789998054504395,26.81800079345703 -6.974999904632568,23.475000381469727 C-18.22800064086914,20.131000518798828 -24.226999282836914,6.909999847412109 -20.375999450683594,-6.053999900817871 C-16.52400016784668,-19.01799964904785 -4.2789998054504395,-26.816999435424805 6.973999977111816,-23.472999572753906 C18.226999282836914,-20.1299991607666 24.22800064086914,-6.910999774932861 20.375999450683594,6.052999973297119z" fill="none"/><g opacity="1" transform="matrix(1,0,0,1,0,0)"/></g></g><g style="display: none;"><g><path fill="none"/><g/></g></g><g transform="matrix(-0.265171080827713,-0.049584370106458664,-0.03914472460746765,0.2909480035305023,319.37982177734375,155.61343383789062)" opacity="1" style="display: block;"><g opacity="1" transform="matrix(0.814300000667572,0,0,0.814300000667572,24.476999282836914,27.06800079345703)"><path fill="rgb(255,255,255)" fill-opacity="1" d=" M20.375999450683594,6.052999973297119 C16.52400016784668,19.017000198364258 4.2789998054504395,26.81800079345703 -6.974999904632568,23.475000381469727 C-18.22800064086914,20.131000518798828 -24.226999282836914,6.909999847412109 -20.375999450683594,-6.053999900817871 C-16.52400016784668,-19.01799964904785 -4.2789998054504395,-26.816999435424805 6.973999977111816,-23.472999572753906 C18.226999282836914,-20.1299991607666 24.22800064086914,-6.910999774932861 20.375999450683594,6.052999973297119z"/><g opacity="1" transform="matrix(1,0,0,1,0,0)"/></g></g><g transform="matrix(-0.944855809211731,0.18877087533473969,0.20282083749771118,1.015179991722107,330.9315185546875,154.16551208496094)" opacity="1" style="display: block;"><g opacity="1" transform="matrix(1,0,0,1,98.04100036621094,61.84400177001953)"><path fill="rgb(255,93,31)" fill-opacity="1" d=" M-92.93299865722656,3.882999897003174 C-95.62000274658203,31.121999740600586 -46.77399826049805,41.7400016784668 -0.6600000262260437,34.56999969482422 C40.638999938964844,28.148000717163086 78.41300201416016,4.660999774932861 73.70700073242188,-19.02400016784668 C71.69300079345703,-29.16200065612793 53.20600128173828,-29.027999877929688 36.62200164794922,-25.402999877929688 C7.696000099182129,-19.08099937438965 5.173999786376953,-45.176998138427734 -16.176000595092773,-40.93600082397461 C-40.00699996948242,-36.20199966430664 -34.854000091552734,-11.204999923706055 -55.37900161743164,-9.104999542236328 C-75.12100219726562,-7.085000038146973 -92.09100341796875,-4.6529998779296875 -92.93299865722656,3.882999897003174z"/><path stroke-linecap="round" stroke-linejoin="round" fill-opacity="0" stroke="rgb(207,53,2)" stroke-opacity="1" stroke-width="8" d=" M-92.93299865722656,3.882999897003174 C-95.62000274658203,31.121999740600586 -46.77399826049805,41.7400016784668 -0.6600000262260437,34.56999969482422 C40.638999938964844,28.148000717163086 78.41300201416016,4.660999774932861 73.70700073242188,-19.02400016784668 C71.69300079345703,-29.16200065612793 53.20600128173828,-29.027999877929688 36.62200164794922,-25.402999877929688 C7.696000099182129,-19.08099937438965 5.173999786376953,-45.176998138427734 -16.176000595092773,-40.93600082397461 C-40.00699996948242,-36.20199966430664 -34.854000091552734,-11.204999923706055 -55.37900161743164,-9.104999542236328 C-75.12100219726562,-7.085000038146973 -92.09100341796875,-4.6529998779296875 -92.93299865722656,3.882999897003174z" fill="none"/></g></g><g transform="matrix(-0.944855809211731,0.18877087533473969,0.20282083749771118,1.015179991722107,324.7282409667969,187.96583557128906)" opacity="1" style="display: block;"><g opacity="1" transform="matrix(1,0,0,1,81.50399780273438,36.75899887084961)"><path stroke-linecap="round" stroke-linejoin="round" fill-opacity="0" stroke="rgb(125,9,9)" stroke-opacity="1" stroke-width="7.2" d=" M60.858001708984375,-18.760000228881836 C46.03799819946289,11.468999862670898 -32.73500061035156,29.06999969482422 -73.86000061035156,3.1640000343322754" fill="none"/></g></g><g transform="matrix(-0.944855809211731,0.18877087533473969,0.20282083749771118,1.015179991722107,307.9637756347656,191.49781799316406)" opacity="1" style="display: block;"><g opacity="1" transform="matrix(1,0,0,1,24.70599937438965,22.10700035095215)"><path stroke-linecap="round" stroke-linejoin="round" fill-opacity="0" stroke="rgb(255,180,132)" stroke-opacity="1" stroke-width="8" d=" M79.97200012207031,-3.364000082015991 C67.6240005493164,-1.8079999685287476 51.07500076293945,-1.9550000429153442 31.066999435424805,-20.243999481201172" fill="none"/></g></g><g transform="matrix(-0.9992445111274719,0.03877862170338631,0.03877862170338631,0.9992445111274719,397.6135559082031,304.4633483886719)" opacity="1" style="display: block;"><g opacity="1" transform="matrix(1,0,0,1,66.02999877929688,75.60199737548828)"><path fill="rgb(255,213,39)" fill-opacity="1" d=" M13.984000205993652,-50.60200119018555 C23.243999481201172,-7.571000099182129 41.02899932861328,34.47800064086914 24.33300018310547,42.540000915527344 C7.63700008392334,50.60200119018555 -33.40399932861328,26.743999481201172 -41.029998779296875,-31.538000106811523"/><path stroke-linecap="round" stroke-linejoin="miter" fill-opacity="0" stroke-miterlimit="10" stroke="rgb(249,143,22)" stroke-opacity="1" stroke-width="10" d=" M13.984000205993652,-50.60200119018555 C23.243999481201172,-7.571000099182129 41.02899932861328,34.47800064086914 24.33300018310547,42.540000915527344 C7.63700008392334,50.60200119018555 -33.40399932861328,26.743999481201172 -41.029998779296875,-31.538000106811523" fill="none"/></g></g><g transform="matrix(-0.9992445111274719,0.03877862170338631,0.03877862170338631,0.9992445111274719,379.22100830078125,167.61610412597656)" opacity="1" style="display: block;"><g opacity="1" transform="matrix(1,0,0,1,34.15299987792969,200.58700561523438)"><path stroke-linecap="round" stroke-linejoin="round" fill-opacity="0" stroke="rgb(255,255,255)" stroke-opacity="1" stroke-width="10" d=" M23.468000411987305,-16.264999389648438 C27.53499984741211,-0.4830000102519989 33.624000549316406,21.957000732421875 35.24700164794922,35.31700134277344" fill="none"/></g></g><g transform="matrix(-0.04111127182841301,0.246596559882164,-0.246596559882164,-0.04111127182841301,241.5639190673828,339.21856689453125)" opacity="1" style="display: block;"><g opacity="1" transform="matrix(1,0,0,1,237.5500030517578,254.3520050048828)"><path fill="rgb(255,212,39)" fill-opacity="1" d=" M-224.05499267578125,217.70199584960938 C-130.1719970703125,218.6840057373047 -110.77300262451172,213.4219970703125 7.578000068664551,166.24099731445312 C30.753000259399414,157.0019989013672 78.39800262451172,127.04100036621094 95.8759994506836,109.23699951171875 C108.03500366210938,96.85199737548828 137.09300231933594,74.12899780273438 162.33399963378906,32.43199920654297 C185.5189971923828,-5.86899995803833 199.28500366210938,-57.86899948120117 191.13699340820312,-101.89299774169922 C185.47000122070312,-132.51100158691406 161.7310028076172,-139.94000244140625 147.8679962158203,-142.5659942626953 C132.51699829101562,-145.4739990234375 99.4229965209961,-138.18699645996094 84.03600311279297,-133.26600646972656 C64.62200164794922,-127.05699920654297 37.77299880981445,-107.3239974975586 12.362000465393066,-90.30899810791016 C-1.7480000257492065,-80.86100006103516 -17.101999282836914,-68.74500274658203 -30.832000732421875,-58.75199890136719 C-63.933998107910156,-34.659000396728516 -88.08399963378906,-17.80699920654297 -120.28399658203125,3.009999990463257 C-157.14300537109375,26.839000701904297 -197.25599670410156,47.38399887084961 -240.18600463867188,72.51899719238281"/><path stroke-linecap="round" stroke-linejoin="round" fill-opacity="0" stroke="rgb(249,143,22)" stroke-opacity="1" stroke-width="37" d=" M-224.05499267578125,217.70199584960938 C-130.1719970703125,218.6840057373047 -110.77300262451172,213.4219970703125 7.578000068664551,166.24099731445312 C30.753000259399414,157.0019989013672 78.39800262451172,127.04100036621094 95.8759994506836,109.23699951171875 C108.03500366210938,96.85199737548828 137.09300231933594,74.12899780273438 162.33399963378906,32.43199920654297 C185.5189971923828,-5.86899995803833 199.28500366210938,-57.86899948120117 191.13699340820312,-101.89299774169922 C185.47000122070312,-132.51100158691406 161.7310028076172,-139.94000244140625 147.8679962158203,-142.5659942626953 C132.51699829101562,-145.4739990234375 99.4229965209961,-138.18699645996094 84.03600311279297,-133.26600646972656 C64.62200164794922,-127.05699920654297 37.77299880981445,-107.3239974975586 12.362000465393066,-90.30899810791016 C-1.7480000257492065,-80.86100006103516 -17.101999282836914,-68.74500274658203 -30.832000732421875,-58.75199890136719 C-63.933998107910156,-34.659000396728516 -88.08399963378906,-17.80699920654297 -120.28399658203125,3.009999990463257 C-157.14300537109375,26.839000701904297 -197.25599670410156,47.38399887084961 -240.18600463867188,72.51899719238281" fill="none"/></g></g><g transform="matrix(-0.04111127182841301,0.246596559882164,-0.246596559882164,-0.04111127182841301,208.92236328125,393.2803039550781)" opacity="1" style="display: block;"><g opacity="1" transform="matrix(1,0,0,1,66.46700286865234,47.801998138427734)"><path stroke-linecap="round" stroke-linejoin="round" fill-opacity="0" stroke="rgb(249,143,22)" stroke-opacity="1" stroke-width="8" d="M0 0" fill="none"/></g></g><g transform="matrix(-0.04111127182841301,0.246596559882164,-0.246596559882164,-0.04111127182841301,208.92236328125,393.2803039550781)" opacity="1" style="display: block;"><g opacity="1" transform="matrix(1,0,0,1,66.46700286865234,47.801998138427734)"><path stroke-linecap="round" stroke-linejoin="round" fill-opacity="0" stroke="rgb(249,143,22)" stroke-opacity="1" stroke-width="8" d="M0 0" fill="none"/></g></g><g transform="matrix(-0.04111127182841301,0.246596559882164,-0.246596559882164,-0.04111127182841301,181.8837890625,345.6639709472656)" opacity="1" style="display: block;"><g opacity="1" transform="matrix(1,0,0,1,197.4600067138672,108.41300201416016)"><path stroke-linecap="round" stroke-linejoin="round" fill-opacity="0" stroke="rgb(251,237,32)" stroke-opacity="1" stroke-width="0" d="M0 0" fill="none"/></g></g><g transform="matrix(-0.04111127182841301,0.246596559882164,-0.246596559882164,-0.04111127182841301,187.18812561035156,425.5545959472656)" opacity="1" style="display: block;"><g opacity="1" transform="matrix(1,0,0,1,38.27899932861328,49.345001220703125)"><path stroke-linecap="round" stroke-linejoin="round" fill-opacity="0" stroke="rgb(251,237,32)" stroke-opacity="1" stroke-width="0" d="M0 0" fill="none"/></g></g><g transform="matrix(-0.04111127182841301,0.246596559882164,-0.246596559882164,-0.04111127182841301,207.30860900878906,420.6072082519531)" opacity="1" style="display: block;"><g opacity="1" transform="matrix(1,0,0,1,43.8120002746582,53.770999908447266)"><path stroke-linecap="round" stroke-linejoin="round" fill-opacity="0" stroke="rgb(251,237,32)" stroke-opacity="1" stroke-width="0" d="M0 0" fill="none"/></g></g><g transform="matrix(-0.04111127182841301,0.246596559882164,-0.246596559882164,-0.04111127182841301,223.44332885742188,368.3341064453125)" opacity="1" style="display: block;"><g opacity="1" transform="matrix(1,0,0,1,58.36899948120117,154.56900024414062)"><path stroke-linecap="round" stroke-linejoin="round" fill-opacity="0" stroke="rgb(255,255,255)" stroke-opacity="1" stroke-width="40" d=" M-115.9260025024414,205.52999877929688 C-54.07899856567383,190.0290069580078 -11.357999801635742,175.25 31.333999633789062,158.81199645996094 C87.72599792480469,137.0989990234375 142.21099853515625,87.89600372314453 143.43099975585938,86.79000091552734" fill="none"/></g></g></g><g clip-path="url(#__lottie_element_31)" style="display: block;" transform="matrix(1,0,0,1,0,0)" opacity="1"><g transform="matrix(-0.762506365776062,0.10716328769922256,0.10716328769922256,0.762506365776062,302.7637023925781,242.2682647705078)" opacity="1" style="display: block;"><path fill="rgb(250,144,22)" fill-opacity="1" d=" M87.38,252.7 C36.48,241.15 25.84,186.75 40.81,138.3 C62.9,66.75 120.75,36.68 188.14,30.47 C202.19,29.18 258.99,42.36 283.69,46.93 C316.97,53.09 350.67,98.5 361.62,145.52 C372.59,192.66 360.7,241.42 298.6,254.1 C227.81,268.55 150.37,267 87.38,252.7z"/><g opacity="1" transform="matrix(1,0,0,1,205.83900451660156,156.75)"><path stroke-linecap="round" stroke-linejoin="miter" fill-opacity="0" stroke-miterlimit="10" stroke="rgb(249,143,22)" stroke-opacity="1" stroke-width="20" d=" M-118.46399688720703,95.9489974975586 C-169.35499572753906,84.4000015258789 -179.9969940185547,30.003000259399414 -165.03399658203125,-18.448999404907227 C-142.93699645996094,-90.00399780273438 -85.09200286865234,-120.07499694824219 -17.695999145507812,-126.27799987792969 C-3.6470000743865967,-127.57099914550781 53.15299987792969,-114.38999938964844 77.85299682617188,-109.81700134277344 C111.12699890136719,-103.65699768066406 144.82899475097656,-58.25299835205078 155.7760009765625,-11.225000381469727 C166.7469940185547,35.90700149536133 154.85699462890625,84.6719970703125 92.75599670410156,97.35199737548828 C21.975000381469727,111.80400085449219 -55.47200012207031,110.24500274658203 -118.46399688720703,95.9489974975586z" fill="none"/></g></g><g transform="matrix(0.9999989867210388,0,0,0.9999989867210388,254.94834899902344,256.0144958496094)" opacity="1" style="display: block;"><g opacity="1" transform="matrix(1,0,0,1,-5.5,0)"><path stroke-linecap="round" stroke-linejoin="round" fill-opacity="0" stroke="rgb(250,144,22)" stroke-opacity="1" stroke-width="20" d=" M-185.14100646972656,196.04400634765625 C-212.14100646972656,180.54400634765625 -222.7449951171875,157.13900756835938 -217,149 C-211,140.5 -196,164.5 -196,164.5" fill="none"/><path fill="rgb(255,213,39)" fill-opacity="1" d=" M-185.14100646972656,196.04400634765625 C-212.14100646972656,180.54400634765625 -222.7449951171875,157.13900756835938 -217,149 C-211,140.5 -196,164.5 -196,164.5"/></g></g><g transform="matrix(-0.762506365776062,0.10716328769922256,0.10716328769922256,0.762506365776062,302.7637023925781,242.2682647705078)" opacity="1" style="display: block;"><path fill="rgb(255,213,39)" fill-opacity="1" d=" M87.38,252.7 C36.48,241.15 25.84,186.75 40.81,138.3 C62.9,66.75 120.75,36.68 188.14,30.47 C202.19,29.18 258.99,42.36 283.69,46.93 C316.97,53.09 350.67,98.5 361.62,145.52 C372.59,192.66 360.7,241.42 298.6,254.1 C227.81,268.55 150.37,267 87.38,252.7z"/><g opacity="1" transform="matrix(1,0,0,1,205.83900451660156,156.75)"/></g><g transform="matrix(-0.762506365776062,0.10716328769922256,0.10716328769922256,0.762506365776062,296.6866455078125,312.9400939941406)" opacity="1" style="display: block;"><g opacity="1" transform="matrix(1,0,0,1,38.819000244140625,73.84600067138672)"><path stroke-linecap="round" stroke-linejoin="round" fill-opacity="0" stroke="rgb(252,238,33)" stroke-opacity="1" stroke-width="10" d=" M0.8320000171661377,-22.275999069213867 C-9.760000228881836,4.455999851226807 -20.781999588012695,41.005001068115234 5.663000106811523,57.87699890136719" fill="none"/></g></g><g transform="matrix(-0.762506365776062,0.10716328769922256,0.10716328769922256,0.762506365776062,78.95681762695312,377.2732238769531)" opacity="1" style="display: block;"><g opacity="1" transform="matrix(1,0,0,1,35.6879997253418,48.13999938964844)"><path stroke-linecap="round" stroke-linejoin="round" fill-opacity="0" stroke="rgb(255,255,255)" stroke-opacity="1" stroke-width="10" d=" M-3.140000104904175,6.742000102996826 C3.3480000495910645,-14.140999794006348 0.8790000081062317,-29.889999389648438 -6.611999988555908,-49.70000076293945" fill="none"/></g></g><g transform="matrix(-0.6734570860862732,0.3733033835887909,0.3733033835887909,0.6734570860862732,198.1582794189453,62.194637298583984)" opacity="1" style="display: block;"><g opacity="1" transform="matrix(1,0,0,1,196.52099609375,174.67799377441406)"><path fill="rgb(255,212,39)" fill-opacity="1" d=" M139.04600524902344,92.73999786376953 C161.73699951171875,64.84600067138672 171.52099609375,30.104999542236328 164.11500549316406,-7.175000190734863 C148.4239959716797,-86.15599822998047 61.35599899291992,-149.67799377441406 -26.993999481201172,-132.12600708007812 C-115.34500122070312,-114.5739974975586 -171.52099609375,-22.594999313354492 -155.8300018310547,56.38600158691406 C-148.44400024414062,93.56600189208984 -121.86399841308594,132.46499633789062 -89.8550033569336,149.67799377441406"/><g opacity="1" transform="matrix(1,0,0,1,0,0)"/></g><g opacity="1" transform="matrix(1,0,0,1,196.52099609375,174.67799377441406)"><path stroke-linecap="round" stroke-linejoin="miter" fill-opacity="0" stroke-miterlimit="10" stroke="rgb(249,143,22)" stroke-opacity="1" stroke-width="10" d=" M139.04600524902344,92.73999786376953 C161.73699951171875,64.84600067138672 171.52099609375,30.104999542236328 164.11500549316406,-7.175000190734863 C148.4239959716797,-86.15599822998047 61.35599899291992,-149.67799377441406 -26.993999481201172,-132.12600708007812 C-115.34500122070312,-114.5739974975586 -171.52099609375,-22.594999313354492 -155.8300018310547,56.38600158691406 C-148.44400024414062,93.56600189208984 -121.86399841308594,132.46499633789062 -89.8550033569336,149.67799377441406" fill="none"/></g></g><g transform="matrix(0.7680110335350037,0.05530770495533943,0.05530770495533943,-0.7680110335350037,-3.394958734512329,342.8775634765625)" opacity="1" style="display: block;"><g opacity="1" transform="matrix(1,0,0,1,49.17599868774414,105.06700134277344)"><path stroke-linecap="round" stroke-linejoin="round" fill-opacity="0" stroke="rgb(255,255,255)" stroke-opacity="1" stroke-width="10" d=" M2.4619998931884766,-72.09500122070312 C-17.260000228881836,-34.915000915527344 -32.28799819946289,60.70500183105469 46.41999816894531,111.41500091552734" fill="none"/></g></g><g transform="matrix(0.7630624175071716,-0.10312940925359726,0.10312940925359726,0.7630624175071716,139.78482055664062,153.50762939453125)" opacity="1" style="display: block;"><g opacity="1" transform="matrix(1,0,0,1,71.9540023803711,84.74400329589844)"><path stroke-linecap="round" stroke-linejoin="round" fill-opacity="0" stroke="rgb(251,237,32)" stroke-opacity="1" stroke-width="10" d=" M46.95399856567383,59.74300003051758 C44.59400177001953,31.695999145507812 32.75299835205078,3.5139999389648438 13.333000183105469,-19.091999053955078 C-2.2239999771118164,-37.20100021362305 -22.645999908447266,-51.73099899291992 -46.95399856567383,-59.74300003051758" fill="none"/></g></g><g transform="matrix(-0.7408261895179749,0.1048235073685646,0.1459616869688034,0.7776622772216797,102.06060028076172,227.20542907714844)" opacity="1" style="display: block;"><g opacity="1" transform="matrix(1,0,0,1,24.476999282836914,27.06800079345703)"><path fill="rgb(0,0,0)" fill-opacity="1" d=" M20.375999450683594,6.052999973297119 C18.937000274658203,10.895999908447266 16.326000213623047,15.019000053405762 13.034000396728516,18.108999252319336 C7.513999938964844,23.290000915527344 0.07599999755620956,25.569000244140625 -6.973999977111816,23.475000381469727 C-14.951000213623047,21.104000091552734 -20.290000915527344,13.770000457763672 -21.349000930786133,5.083000183105469 C-21.784000396728516,1.5160000324249268 -21.496999740600586,-2.2799999713897705 -20.375999450683594,-6.053999900817871 C-19.34600067138672,-9.520000457763672 -17.716999053955078,-12.616999626159668 -15.666000366210938,-15.230999946594238 C-10.04699993133545,-22.392000198364258 -1.2699999809265137,-25.92300033569336 6.973999977111816,-23.472999572753906 C14.788999557495117,-21.150999069213867 20.070999145507812,-14.065999984741211 21.277999877929688,-5.610000133514404 C21.80900001525879,-1.8910000324249268 21.55299949645996,2.0929999351501465 20.375999450683594,6.052999973297119z"/><path stroke-linecap="butt" stroke-linejoin="miter" fill-opacity="0" stroke-miterlimit="4" stroke="rgb(0,0,0)" stroke-opacity="1" stroke-width="0" d=" M20.375999450683594,6.052999973297119 C18.937000274658203,10.895999908447266 16.326000213623047,15.019000053405762 13.034000396728516,18.108999252319336 C7.513999938964844,23.290000915527344 0.07599999755620956,25.569000244140625 -6.973999977111816,23.475000381469727 C-14.951000213623047,21.104000091552734 -20.290000915527344,13.770000457763672 -21.349000930786133,5.083000183105469 C-21.784000396728516,1.5160000324249268 -21.496999740600586,-2.2799999713897705 -20.375999450683594,-6.053999900817871 C-19.34600067138672,-9.520000457763672 -17.716999053955078,-12.616999626159668 -15.666000366210938,-15.230999946594238 C-10.04699993133545,-22.392000198364258 -1.2699999809265137,-25.92300033569336 6.973999977111816,-23.472999572753906 C14.788999557495117,-21.150999069213867 20.070999145507812,-14.065999984741211 21.277999877929688,-5.610000133514404 C21.80900001525879,-1.8910000324249268 21.55299949645996,2.0929999351501465 20.375999450683594,6.052999973297119z" fill="none"/><g opacity="1" transform="matrix(1,0,0,1,0,0)"/></g></g><g transform="matrix(-0.2801879048347473,0.039645303040742874,0.05520416423678398,0.29411962628364563,85.74234008789062,246.13931274414062)" opacity="1" style="display: block;"><g opacity="1" transform="matrix(0.6645900011062622,0,0,0.6645900011062622,25.833999633789062,-7.906000137329102)"><path fill="rgb(255,255,255)" fill-opacity="1" d=" M20.375999450683594,6.052999973297119 C18.937000274658203,10.895999908447266 16.326000213623047,15.019000053405762 13.034000396728516,18.108999252319336 C7.513999938964844,23.290000915527344 0.07500000298023224,25.569000244140625 -6.974999904632568,23.475000381469727 C-14.95199966430664,21.104000091552734 -20.290000915527344,13.770000457763672 -21.349000930786133,5.083000183105469 C-21.784000396728516,1.5160000324249268 -21.496999740600586,-2.2799999713897705 -20.375999450683594,-6.053999900817871 C-19.34600067138672,-9.520000457763672 -17.716999053955078,-12.616999626159668 -15.666000366210938,-15.230999946594238 C-10.04699993133545,-22.392000198364258 -1.2699999809265137,-25.92300033569336 6.973999977111816,-23.472999572753906 C14.788999557495117,-21.150999069213867 20.070999145507812,-14.065999984741211 21.277999877929688,-5.610000133514404 C21.80900001525879,-1.8910000324249268 21.55299949645996,2.0929999351501465 20.375999450683594,6.052999973297119z"/><g opacity="1" transform="matrix(1,0,0,1,0,0)"/></g></g><g transform="matrix(-0.28018760681152344,0.039647266268730164,0.05520622804760933,0.294119268655777,86.35647583007812,248.1686553955078)" opacity="1" style="display: none;"><g opacity="1" transform="matrix(0.6645900011062622,0,0,0.6645900011062622,25.833999633789062,-7.906000137329102)"><path fill="rgb(255,255,255)" fill-opacity="1" d=" M20.375999450683594,6.052999973297119 C18.937000274658203,10.895999908447266 16.326000213623047,15.019000053405762 13.034000396728516,18.108999252319336 C7.513999938964844,23.290000915527344 0.07500000298023224,25.569000244140625 -6.974999904632568,23.475000381469727 C-14.95199966430664,21.104000091552734 -20.290000915527344,13.770000457763672 -21.349000930786133,5.083000183105469 C-21.784000396728516,1.5160000324249268 -21.496999740600586,-2.2799999713897705 -20.375999450683594,-6.053999900817871 C-19.34600067138672,-9.520000457763672 -17.716999053955078,-12.616999626159668 -15.666000366210938,-15.230999946594238 C-10.04699993133545,-22.392000198364258 -1.2699999809265137,-25.92300033569336 6.973999977111816,-23.472999572753906 C14.788999557495117,-21.150999069213867 20.070999145507812,-14.065999984741211 21.277999877929688,-5.610000133514404 C21.80900001525879,-1.8910000324249268 21.55299949645996,2.0929999351501465 20.375999450683594,6.052999973297119z"/><g opacity="1" transform="matrix(1,0,0,1,0,0)"/></g></g><g transform="matrix(-0.6793940663337708,0.10092908889055252,0.1508072018623352,0.7769595980644226,197.6129150390625,198.1671600341797)" opacity="1" style="display: block;"><g opacity="1" transform="matrix(1,0,0,1,24.476999282836914,27.06800079345703)"><path fill="rgb(0,0,0)" fill-opacity="1" d=" M20.375999450683594,6.052999973297119 C16.52400016784668,19.017000198364258 4.2789998054504395,26.81800079345703 -6.974999904632568,23.475000381469727 C-18.22800064086914,20.131000518798828 -24.226999282836914,6.909999847412109 -20.375999450683594,-6.053999900817871 C-16.52400016784668,-19.01799964904785 -4.2789998054504395,-26.816999435424805 6.973999977111816,-23.472999572753906 C18.226999282836914,-20.1299991607666 24.22800064086914,-6.910999774932861 20.375999450683594,6.052999973297119z"/><path stroke-linecap="butt" stroke-linejoin="miter" fill-opacity="0" stroke-miterlimit="4" stroke="rgb(0,0,0)" stroke-opacity="1" stroke-width="0" d=" M20.375999450683594,6.052999973297119 C16.52400016784668,19.017000198364258 4.2789998054504395,26.81800079345703 -6.974999904632568,23.475000381469727 C-18.22800064086914,20.131000518798828 -24.226999282836914,6.909999847412109 -20.375999450683594,-6.053999900817871 C-16.52400016784668,-19.01799964904785 -4.2789998054504395,-26.816999435424805 6.973999977111816,-23.472999572753906 C18.226999282836914,-20.1299991607666 24.22800064086914,-6.910999774932861 20.375999450683594,6.052999973297119z" fill="none"/><g opacity="1" transform="matrix(1,0,0,1,0,0)"/></g></g><g transform="matrix(-0.2062741369009018,0.024513594806194305,0.03817114233970642,0.22280161082744598,180.91897583007812,208.04566955566406)" opacity="1" style="display: block;"><g opacity="1" transform="matrix(0.814300000667572,0,0,0.814300000667572,24.476999282836914,27.06800079345703)"><path fill="rgb(255,255,255)" fill-opacity="1" d=" M20.375999450683594,6.052999973297119 C16.52400016784668,19.017000198364258 4.2789998054504395,26.81800079345703 -6.974999904632568,23.475000381469727 C-18.22800064086914,20.131000518798828 -24.226999282836914,6.909999847412109 -20.375999450683594,-6.053999900817871 C-16.52400016784668,-19.01799964904785 -4.2789998054504395,-26.816999435424805 6.973999977111816,-23.472999572753906 C18.226999282836914,-20.1299991607666 24.22800064086914,-6.910999774932861 20.375999450683594,6.052999973297119z"/><g opacity="1" transform="matrix(1,0,0,1,0,0)"/></g></g><g transform="matrix(-0.2062261551618576,0.02487839199602604,0.03850477933883667,0.22274567186832428,181.52267456054688,210.06695556640625)" opacity="1" style="display: none;"><g opacity="1" transform="matrix(0.814300000667572,0,0,0.814300000667572,24.476999282836914,27.06800079345703)"><path fill="rgb(255,255,255)" fill-opacity="1" d=" M20.375999450683594,6.052999973297119 C16.52400016784668,19.017000198364258 4.2789998054504395,26.81800079345703 -6.974999904632568,23.475000381469727 C-18.22800064086914,20.131000518798828 -24.226999282836914,6.909999847412109 -20.375999450683594,-6.053999900817871 C-16.52400016784668,-19.01799964904785 -4.2789998054504395,-26.816999435424805 6.973999977111816,-23.472999572753906 C18.226999282836914,-20.1299991607666 24.22800064086914,-6.910999774932861 20.375999450683594,6.052999973297119z"/><g opacity="1" transform="matrix(1,0,0,1,0,0)"/></g></g><g transform="matrix(-0.6503481864929199,0.3570590913295746,0.3836345076560974,0.6987527012825012,189.12802124023438,199.53317260742188)" opacity="1" style="display: block;"><g opacity="1" transform="matrix(1,0,0,1,98.04100036621094,61.84400177001953)"><path fill="rgb(255,93,31)" fill-opacity="1" d=" M-93.0836410522461,17.519371032714844 C-90.36164093017578,31.879371643066406 -50.10894775390625,40.63625717163086 -9.114947319030762,32.49225997924805 C31.879053115844727,24.34825897216797 78.58243560791016,4.948158264160156 73.87643432617188,-18.736841201782227 C71.86243438720703,-28.874841690063477 53.62514877319336,-28.911632537841797 36.76213836669922,-25.847787857055664 C7.777433395385742,-20.465709686279297 5.313243865966797,-45.621788024902344 -16.03675651550293,-41.38078689575195 C-39.86775588989258,-36.646785736083984 -43.494468688964844,-10.041126251220703 -63.67539978027344,-4.778055191040039 C-81.86770629882812,-0.06668057292699814 -95.64163970947266,4.027371883392334 -93.0836410522461,17.519371032714844z"/><path stroke-linecap="round" stroke-linejoin="round" fill-opacity="0" stroke="rgb(207,53,2)" stroke-opacity="1" stroke-width="8" d=" M-93.0836410522461,17.519371032714844 C-90.36164093017578,31.879371643066406 -50.10894775390625,40.63625717163086 -9.114947319030762,32.49225997924805 C31.879053115844727,24.34825897216797 78.58243560791016,4.948158264160156 73.87643432617188,-18.736841201782227 C71.86243438720703,-28.874841690063477 53.62514877319336,-28.911632537841797 36.76213836669922,-25.847787857055664 C7.777433395385742,-20.465709686279297 5.313243865966797,-45.621788024902344 -16.03675651550293,-41.38078689575195 C-39.86775588989258,-36.646785736083984 -43.494468688964844,-10.041126251220703 -63.67539978027344,-4.778055191040039 C-81.86770629882812,-0.06668057292699814 -95.64163970947266,4.027371883392334 -93.0836410522461,17.519371032714844z" fill="none"/></g></g><g transform="matrix(-0.6503481864929199,0.3570590913295746,0.3836345076560974,0.6987527012825012,192.38497924804688,225.79298400878906)" opacity="1" style="display: block;"><g opacity="1" transform="matrix(1,0,0,1,81.50399780273438,36.75899887084961)"><path stroke-linecap="round" stroke-linejoin="round" fill-opacity="0" stroke="rgb(125,9,9)" stroke-opacity="1" stroke-width="7.2" d=" M60.83982467651367,-19.199251174926758 C40.3207893371582,2.047692060470581 -41.68783187866211,20.34249496459961 -72.72872161865234,7.132696151733398" fill="none"/></g></g><g transform="matrix(-0.6503481864929199,0.3570590913295746,0.3836345076560974,0.6987527012825012,180.88815307617188,232.26239013671875)" opacity="1" style="display: block;"><g opacity="1" transform="matrix(1,0,0,1,24.70599937438965,22.10700035095215)"><path stroke-linecap="round" stroke-linejoin="round" fill-opacity="0" stroke="rgb(255,180,132)" stroke-opacity="1" stroke-width="8" d=" M78.25399780273438,-4.056000232696533 C65.74500274658203,-2.8450000286102295 48.869998931884766,-4.296000003814697 29.60700035095215,-22.597000122070312" fill="none"/></g></g><g transform="matrix(-0.6627234220504761,0.3920428454875946,0.3920428454875946,0.6627234220504761,308.1082458496094,265.94415283203125)" opacity="1" style="display: block;"><g opacity="1" transform="matrix(1,0,0,1,66.02999877929688,75.60199737548828)"><path fill="rgb(255,213,39)" fill-opacity="1" d=" M44.74300003051758,-36.715999603271484 C22.402999877929688,5.085999965667725 41.02899932861328,34.47800064086914 24.33300018310547,42.540000915527344 C7.63700008392334,50.60200119018555 -32.09299850463867,0.9070000052452087 25.54400062561035,-55.3129997253418"/><path stroke-linecap="round" stroke-linejoin="miter" fill-opacity="0" stroke-miterlimit="10" stroke="rgb(249,143,22)" stroke-opacity="1" stroke-width="10" d=" M44.74300003051758,-36.715999603271484 C22.402999877929688,5.085999965667725 41.02899932861328,34.47800064086914 24.33300018310547,42.540000915527344 C7.63700008392334,50.60200119018555 -32.09299850463867,0.9070000052452087 25.54400062561035,-55.3129997253418" fill="none"/></g></g><g transform="matrix(-0.6627234220504761,0.3920428454875946,0.3920428454875946,0.6627234220504761,245.55567932128906,179.97230529785156)" opacity="1" style="display: block;"><g opacity="1" transform="matrix(1,0,0,1,34.15299987792969,200.58700561523438)"><path stroke-linecap="round" stroke-linejoin="round" fill-opacity="0" stroke="rgb(255,255,255)" stroke-opacity="1" stroke-width="10" d=" M51.17599868774414,-25.327999114990234 C43.70899963378906,-17.08300018310547 36.68899917602539,2.992000102996826 38.89099884033203,19.003999710083008" fill="none"/></g></g><g transform="matrix(0.9990686774253845,-0.04314859211444855,0.04314859211444855,0.9990686774253845,37.733184814453125,-30.239959716796875)" opacity="1" style="display: block;"><g opacity="1" transform="matrix(1,0,0,1,237.5500030517578,254.3520050048828)"><path fill="rgb(255,212,39)" fill-opacity="1" d=" M-203.14500427246094,176.23199462890625 C-135.4029998779297,222.48399353027344 9.954999923706055,152.4669952392578 107.58100128173828,102.33699798583984 C121.6240005493164,141.1999969482422 184.01400756835938,80.58599853515625 194.7740020751953,65.72699737548828 C214.18800354003906,38.917999267578125 204.57200622558594,-2.63700008392334 187.32000732421875,-12.28600025177002 C209.4550018310547,-24.91900062561035 196.13400268554688,-86.95800018310547 167.95799255371094,-82.82099914550781 C193.47000122070312,-102.18199920654297 153.63699340820312,-160.70799255371094 121.4749984741211,-151.63900756835938 C67.71199798583984,-136.47900390625 40.27199935913086,-110.4489974975586 19.93600082397461,-94.16100311279297 C8.871999740600586,-149.822998046875 -26.13599967956543,-229.3520050048828 -81.02200317382812,-188.28599548339844 C-97.69200134277344,-175.81399536132812 -94.5530014038086,-151.9250030517578 -86.0739974975586,-134.7010040283203 C-72.06300354003906,-106.24400329589844 -47.61600112915039,-62.900001525878906 -47.457000732421875,-28.393999099731445 C-46.65299987792969,146.41600036621094 -159.92799377441406,170.84500122070312 -197.04800415039062,149.00999450683594"/><path stroke-linecap="round" stroke-linejoin="round" fill-opacity="0" stroke="rgb(249,143,22)" stroke-opacity="1" stroke-width="8.5" d=" M-203.14500427246094,176.23199462890625 C-135.4029998779297,222.48399353027344 9.954999923706055,152.4669952392578 107.58100128173828,102.33699798583984 C121.6240005493164,141.1999969482422 184.01400756835938,80.58599853515625 194.7740020751953,65.72699737548828 C214.18800354003906,38.917999267578125 204.57200622558594,-2.63700008392334 187.32000732421875,-12.28600025177002 C209.4550018310547,-24.91900062561035 196.13400268554688,-86.95800018310547 167.95799255371094,-82.82099914550781 C193.47000122070312,-102.18199920654297 153.63699340820312,-160.70799255371094 121.4749984741211,-151.63900756835938 C67.71199798583984,-136.47900390625 40.27199935913086,-110.4489974975586 19.93600082397461,-94.16100311279297 C8.871999740600586,-149.822998046875 -26.13599967956543,-229.3520050048828 -81.02200317382812,-188.28599548339844 C-97.69200134277344,-175.81399536132812 -94.5530014038086,-151.9250030517578 -86.0739974975586,-134.7010040283203 C-72.06300354003906,-106.24400329589844 -47.61600112915039,-62.900001525878906 -47.457000732421875,-28.393999099731445 C-46.65299987792969,146.41600036621094 -159.92799377441406,170.84500122070312 -197.04800415039062,149.00999450683594" fill="none"/></g></g><g transform="matrix(0.9990686774253845,-0.04314859211444855,0.04314859211444855,0.9990686774253845,276.3111877441406,52.77104568481445)" opacity="1" style="display: block;"><g opacity="1" transform="matrix(1,0,0,1,66.46700286865234,47.801998138427734)"><path stroke-linecap="round" stroke-linejoin="round" fill-opacity="0" stroke="rgb(249,143,22)" stroke-opacity="1" stroke-width="8" d=" M43.656497955322266,215.5401611328125 C71.1294937133789,199.43516540527344 85.92949676513672,189.88516235351562 107.96249389648438,173.8651580810547" fill="none"/></g></g><g transform="matrix(0.9990686774253845,-0.04314859211444855,0.04314859211444855,0.9990686774253845,276.3111877441406,52.77104568481445)" opacity="1" style="display: block;"><g opacity="1" transform="matrix(1,0,0,1,66.46700286865234,47.801998138427734)"><path stroke-linecap="round" stroke-linejoin="round" fill-opacity="0" stroke="rgb(249,143,22)" stroke-opacity="1" stroke-width="8" d=" M-59.359535217285156,33.01154708862305 C-54.99553298950195,29.197546005249023 -50.374534606933594,25.33740997314453 -42.795536041259766,18.322410583496094" fill="none"/></g></g><g transform="matrix(0.9990686774253845,-0.04314859211444855,0.04314859211444855,0.9990686774253845,112.33722686767578,197.9845428466797)" opacity="1" style="display: block;"><g opacity="1" transform="matrix(1,0,0,1,197.4600067138672,108.41300201416016)"><path stroke-linecap="round" stroke-linejoin="round" fill-opacity="0" stroke="rgb(251,237,32)" stroke-opacity="1" stroke-width="10" d=" M-174.5540008544922,92.22200012207031 C-92.8759994506836,91.22699737548828 46.11199951171875,27.334999084472656 139.37600708007812,-38.52299880981445 C158.55799865722656,-52.06800079345703 173.9219970703125,-62.263999938964844 159.18099975585938,-83.41200256347656" fill="none"/></g></g><g transform="matrix(0.9990686774253845,-0.04314859211444855,0.04314859211444855,0.9990686774253845,420.5993957519531,111.1235580444336)" opacity="1" style="display: block;"><g opacity="1" transform="matrix(1,0,0,1,38.27899932861328,49.345001220703125)"><path stroke-linecap="round" stroke-linejoin="round" fill-opacity="0" stroke="rgb(251,237,32)" stroke-opacity="1" stroke-width="10" d=" M0.8849999904632568,24.344999313354492 C10.583000183105469,8.045999526977539 -0.37400001287460327,-21.11199951171875 -13.279000282287598,-23.459999084472656" fill="none"/></g></g><g transform="matrix(0.9990686774253845,-0.04314859211444855,0.04314859211444855,0.9990686774253845,384.58990478515625,36.475807189941406)" opacity="1" style="display: block;"><g opacity="1" transform="matrix(1,0,0,1,43.8120002746582,53.770999908447266)"><path stroke-linecap="round" stroke-linejoin="round" fill-opacity="0" stroke="rgb(251,237,32)" stroke-opacity="1" stroke-width="10" d=" M10.508999824523926,16.799999237060547 C4.74399995803833,-3.4860000610351562 -6.335000038146973,-27.766000747680664 -38.60300064086914,-17.309999465942383" fill="none"/></g></g><g transform="matrix(0.9990686774253845,-0.04314859211444855,0.04314859211444855,0.9990686774253845,166.669677734375,16.584217071533203)" opacity="1" style="display: block;"><g opacity="1" transform="matrix(1,0,0,1,58.36899948120117,154.56900024414062)"><path stroke-linecap="round" stroke-linejoin="round" fill-opacity="0" stroke="rgb(255,255,255)" stroke-opacity="1" stroke-width="10" d=" M2.678999900817871,127.4489974975586 C53.040000915527344,-1.6720000505447388 -4.373000144958496,-67.97599792480469 -17.36400032043457,-93.13400268554688 C-24.347999572753906,-106.65799713134766 -24.84600067138672,-116.06500244140625 -23.375999450683594,-122.26200103759766" fill="none"/></g></g></g></g></svg>