<svg width="2048" height="512" viewBox="0 0 2048 512" fill="none" xmlns="http://www.w3.org/2000/svg">
<g clip-path="url(#clip0_92_505)">
<mask id="mask0_92_505" style="mask-type:luminance" maskUnits="userSpaceOnUse" x="512" y="0" width="512" height="512">
<path d="M1024 0H512V512H1024V0Z" fill="white"/>
</mask>
<g mask="url(#mask0_92_505)">
<path d="M123.277 202.296C167.464 202.296 192.696 277.344 242.001 295.102C421.795 359.86 430.683 82.8318 379.814 110.507C372.631 114.415 368.698 123.239 367.779 134.676C364.135 179.992 380.084 312.344 454.212 323.964C500.354 331.196 524.735 225.345 569.073 227.197C593.695 228.225 615.883 230.146 638.062 239.199" stroke="#3F3644" stroke-width="12.7078" stroke-miterlimit="10"/>
<path d="M638.062 239.199C678.66 255.771 704.696 277.344 754.001 295.102C933.795 359.86 942.683 82.8318 891.814 110.507C884.631 114.415 880.698 123.239 879.779 134.676C876.135 179.992 892.084 312.344 966.212 323.964C1012.35 331.196 1036.73 225.345 1081.07 227.197C1105.69 228.225 1123.14 202.296 1147.28 202.296" stroke="#3F3644" stroke-width="12.7078" stroke-miterlimit="10"/>
<path d="M360.144 425.974C345.957 373.089 379.322 319.228 434.667 305.671C490.013 292.115 546.379 323.997 560.567 376.882C574.754 429.767 541.389 483.628 486.044 497.184C430.698 510.74 374.332 478.859 360.144 425.974Z" fill="url(#paint0_radial_92_505)"/>
<path d="M685.591 164.974C674.508 218.532 620.086 253.364 564.037 242.774C507.987 232.184 471.535 180.183 482.618 126.625C493.7 73.0669 548.12 38.2341 604.17 48.8241C660.22 59.4141 696.673 111.416 685.591 164.974Z" fill="url(#paint1_radial_92_505)"/>
<path d="M604.507 158.09C600.204 178.888 582.422 193.048 574.631 191.576C566.841 190.104 556.038 170.544 560.341 149.746C564.644 128.949 582.426 114.788 590.216 116.26C598.007 117.732 608.81 137.293 604.507 158.09Z" fill="url(#paint2_radial_92_505)"/>
<path d="M604.507 158.09C600.204 178.888 582.422 193.048 574.631 191.576C566.841 190.104 556.038 170.544 560.341 149.746C564.644 128.949 582.426 114.788 590.216 116.26C598.007 117.732 608.81 137.293 604.507 158.09Z" stroke="#9F0702" stroke-width="12.7142" stroke-linecap="round" stroke-linejoin="round"/>
<path d="M574.024 218.965L564.285 217.125C562.076 216.708 560.517 215.075 560.731 213.403L562.589 185.658C562.822 183.844 565.035 182.696 567.432 183.149L584.645 186.401C587.041 186.854 588.631 188.72 588.124 190.482L578.793 216.815C578.325 218.44 576.232 219.382 574.024 218.965Z" fill="#4F4756"/>
<path d="M574.024 218.965L564.285 217.125C562.076 216.708 560.517 215.075 560.731 213.403L562.589 185.658C562.822 183.844 565.035 182.696 567.432 183.149L584.645 186.401C587.041 186.854 588.631 188.72 588.124 190.482L578.793 216.815C578.325 218.44 576.232 219.382 574.024 218.965Z" stroke="#1E191D" stroke-width="12.7142" stroke-linecap="round" stroke-linejoin="round"/>
<path d="M872.144 425.974C857.957 373.089 891.322 319.228 946.667 305.671C1002.01 292.115 1058.38 323.997 1072.57 376.882C1086.75 429.767 1053.39 483.628 998.044 497.184C942.698 510.74 886.332 478.859 872.144 425.974Z" fill="url(#paint3_radial_92_505)"/>
<path d="M948.4 398.753C942.891 378.216 952.537 358.112 960.23 356.227C967.923 354.343 986.501 367.535 992.01 388.071C997.519 408.608 987.873 428.712 980.18 430.597C972.487 432.481 953.909 419.289 948.4 398.753Z" fill="url(#paint4_radial_92_505)"/>
<path d="M948.4 398.753C942.891 378.216 952.537 358.112 960.23 356.227C967.923 354.343 986.501 367.535 992.01 388.071C997.519 408.608 987.873 428.712 980.18 430.597C972.487 432.481 953.909 419.289 948.4 398.753Z" stroke="#FDA300" stroke-width="12.7097" stroke-linecap="round" stroke-linejoin="round"/>
<path d="M948.41 331.268L958.027 328.913C960.208 328.379 962.352 329.209 962.914 330.806L973.766 356.602C974.376 358.334 972.895 360.282 970.53 360.861L953.534 365.024C951.168 365.604 948.89 364.577 948.552 362.778L945.079 335.174C944.768 333.515 946.229 331.803 948.41 331.268Z" fill="#4F4756"/>
<path d="M948.41 331.268L958.027 328.913C960.208 328.379 962.352 329.209 962.914 330.806L973.766 356.602C974.376 358.334 972.895 360.282 970.53 360.861L953.534 365.024C951.168 365.604 948.89 364.577 948.552 362.778L945.079 335.174C944.768 333.515 946.229 331.803 948.41 331.268Z" stroke="#1E191D" stroke-width="12.7097" stroke-linecap="round" stroke-linejoin="round"/>
<path d="M801.891 35.1978C858.862 39.3302 901.541 86.8103 897.216 141.249C892.892 195.688 843.202 236.468 786.231 232.336C729.26 228.204 686.582 180.724 690.906 126.285C695.231 71.8464 744.92 31.0656 801.891 35.1978Z" fill="url(#paint5_radial_92_505)"/>
<path d="M804.4 112.946C826.523 114.55 843.356 129.732 842.754 137.299C842.154 144.866 823.116 157.446 800.993 155.842C778.87 154.237 762.038 139.055 762.639 131.488C763.24 123.921 782.277 111.341 804.4 112.946Z" fill="url(#paint6_radial_92_505)"/>
<path d="M804.4 112.946C826.523 114.55 843.356 129.732 842.754 137.299C842.154 144.866 823.116 157.446 800.993 155.842C778.87 154.237 762.038 139.055 762.639 131.488C763.24 123.921 782.277 111.341 804.4 112.946Z" stroke="#254BFF" stroke-width="12.7088" stroke-linecap="round" stroke-linejoin="round"/>
<path d="M871.287 134.611L870.535 144.071C870.365 146.215 868.853 147.89 867.09 147.886L838.04 149.428C836.128 149.424 834.671 147.46 834.856 145.133L836.184 128.415C836.369 126.088 838.118 124.356 840.01 124.628L868.484 130.343C870.227 130.594 871.457 132.466 871.287 134.611Z" fill="#4F4756"/>
<path d="M871.287 134.611L870.535 144.071C870.365 146.215 868.853 147.89 867.09 147.886L838.04 149.428C836.128 149.424 834.671 147.46 834.856 145.133L836.184 128.415C836.369 126.088 838.118 124.356 840.01 124.628L868.484 130.343C870.227 130.594 871.457 132.466 871.287 134.611Z" stroke="#1E191D" stroke-width="12.7088" stroke-linecap="round" stroke-linejoin="round"/>
<path d="M622.735 311.077C654.552 265.731 718.814 253.618 766.27 284.021C813.726 314.423 826.404 375.83 794.586 421.176C762.769 466.522 698.506 478.636 651.051 448.233C603.595 417.83 590.917 356.423 622.735 311.077Z" fill="url(#paint7_radial_92_505)"/>
<path d="M694.786 347.274C707.141 329.665 729.257 323.143 735.854 327.369C742.45 331.595 744.534 353.622 732.179 371.231C719.824 388.84 697.708 395.363 691.111 391.136C684.515 386.911 682.431 364.883 694.786 347.274Z" fill="url(#paint8_radial_92_505)"/>
<path d="M694.786 347.274C707.141 329.665 729.257 323.143 735.854 327.369C742.45 331.595 744.534 353.622 732.179 371.231C719.824 388.84 697.708 395.363 691.111 391.136C684.515 386.911 682.431 364.883 694.786 347.274Z" stroke="#359E04" stroke-width="12.7094" stroke-linecap="round" stroke-linejoin="round"/>
<path d="M747.455 302.317L755.701 307.6C757.571 308.799 758.352 310.878 757.481 312.343L744.581 337.262C743.635 338.851 741.129 339.095 739.1 337.796L724.527 328.459C722.498 327.159 721.781 324.852 722.961 323.412L742.188 302.545C743.275 301.219 745.585 301.118 747.455 302.317Z" fill="#4F4756"/>
<path d="M747.455 302.317L755.701 307.6C757.571 308.799 758.352 310.878 757.481 312.343L744.581 337.262C743.635 338.851 741.129 339.095 739.1 337.796L724.527 328.459C722.498 327.159 721.781 324.852 722.961 323.412L742.188 302.545C743.275 301.219 745.585 301.118 747.455 302.317Z" stroke="#1E191D" stroke-width="12.7094" stroke-linecap="round" stroke-linejoin="round"/>
<path d="M1197.59 164.974C1186.51 218.532 1132.09 253.364 1076.04 242.774C1019.99 232.184 983.535 180.183 994.618 126.625C1005.7 73.0669 1060.12 38.2341 1116.17 48.8241C1172.22 59.4141 1208.67 111.416 1197.59 164.974Z" fill="url(#paint9_radial_92_505)"/>
</g>
</g>
<g clip-path="url(#clip1_92_505)">
<mask id="mask1_92_505" style="mask-type:luminance" maskUnits="userSpaceOnUse" x="0" y="0" width="512" height="512">
<path d="M512 0H0V512H512V0Z" fill="white"/>
</mask>
<g mask="url(#mask1_92_505)">
<path d="M-388.723 202.296C-344.536 202.296 -319.304 277.344 -269.999 295.102C-90.2054 359.86 -81.3174 82.8318 -132.186 110.507C-139.369 114.415 -143.302 123.239 -144.221 134.676C-147.865 179.992 -131.916 312.344 -57.7879 323.964C-11.6464 331.196 12.7346 225.345 57.0726 227.197C81.6946 228.225 103.883 230.146 126.062 239.199" stroke="#3F3644" stroke-width="12.7078" stroke-miterlimit="10"/>
<path d="M126.062 239.199C166.66 255.771 192.696 277.344 242.001 295.102C421.795 359.86 430.683 82.8318 379.814 110.507C372.631 114.415 368.698 123.239 367.779 134.676C364.135 179.992 380.084 312.344 454.212 323.964C500.354 331.196 524.735 225.345 569.073 227.197C593.695 228.225 611.137 202.296 635.277 202.296" stroke="#3F3644" stroke-width="12.7078" stroke-miterlimit="10"/>
<path d="M-151.856 425.974C-166.043 373.089 -132.678 319.228 -77.3325 305.671C-21.9869 292.115 34.3795 323.997 48.5669 376.882C62.7543 429.767 29.3892 483.628 -25.9564 497.184C-81.3017 510.74 -137.668 478.859 -151.856 425.974Z" fill="url(#paint10_radial_92_505)"/>
<path d="M173.591 164.974C162.508 218.532 108.087 253.364 52.037 242.774C-4.01254 232.184 -40.4651 180.183 -29.3824 126.625C-18.2997 73.0669 36.1205 38.2341 92.17 48.8241C148.22 59.4141 184.674 111.416 173.591 164.974Z" fill="url(#paint11_radial_92_505)"/>
<path d="M92.507 158.09C88.2039 178.888 70.4221 193.048 62.6315 191.576C54.8409 190.104 44.0376 170.544 48.3414 149.746C52.6444 128.949 70.4256 114.788 78.2162 116.26C86.0068 117.732 96.8101 137.293 92.507 158.09Z" fill="url(#paint12_radial_92_505)"/>
<path d="M92.507 158.09C88.2039 178.888 70.4221 193.048 62.6315 191.576C54.8409 190.104 44.0376 170.544 48.3414 149.746C52.6444 128.949 70.4256 114.788 78.2162 116.26C86.0068 117.732 96.8101 137.293 92.507 158.09Z" stroke="#9F0702" stroke-width="12.7142" stroke-linecap="round" stroke-linejoin="round"/>
<path d="M62.0239 218.965L52.2846 217.125C50.0762 216.708 48.5174 215.075 48.7314 213.403L50.5894 185.658C50.8217 183.844 53.0354 182.696 55.432 183.149L72.6448 186.401C75.0415 186.854 76.6315 188.72 76.1241 190.482L66.7932 216.815C66.3251 218.44 64.2323 219.382 62.0239 218.965Z" fill="#4F4756"/>
<path d="M62.0239 218.965L52.2846 217.125C50.0762 216.708 48.5174 215.075 48.7314 213.403L50.5894 185.658C50.8217 183.844 53.0354 182.696 55.432 183.149L72.6448 186.401C75.0415 186.854 76.6315 188.72 76.1241 190.482L66.7932 216.815C66.3251 218.44 64.2323 219.382 62.0239 218.965Z" stroke="#1E191D" stroke-width="12.7142" stroke-linecap="round" stroke-linejoin="round"/>
<path d="M360.144 425.974C345.957 373.089 379.322 319.228 434.668 305.671C490.013 292.115 546.38 323.997 560.567 376.882C574.754 429.767 541.389 483.628 486.044 497.184C430.698 510.74 374.332 478.859 360.144 425.974Z" fill="url(#paint13_radial_92_505)"/>
<path d="M436.4 398.753C430.891 378.216 440.537 358.112 448.23 356.227C455.923 354.343 474.502 367.535 480.01 388.071C485.519 408.608 475.873 428.712 468.181 430.597C460.488 432.481 441.909 419.289 436.4 398.753Z" fill="url(#paint14_radial_92_505)"/>
<path d="M436.4 398.753C430.891 378.216 440.537 358.112 448.23 356.227C455.923 354.343 474.502 367.535 480.01 388.071C485.519 408.608 475.873 428.712 468.181 430.597C460.488 432.481 441.909 419.289 436.4 398.753Z" stroke="#FDA300" stroke-width="12.7097" stroke-linecap="round" stroke-linejoin="round"/>
<path d="M436.41 331.268L446.027 328.913C448.209 328.379 450.352 329.209 450.914 330.806L461.766 356.602C462.376 358.334 460.895 360.282 458.53 360.861L441.534 365.024C439.168 365.604 436.89 364.577 436.552 362.778L433.079 335.174C432.768 333.515 434.229 331.803 436.41 331.268Z" fill="#4F4756"/>
<path d="M436.41 331.268L446.027 328.913C448.209 328.379 450.352 329.209 450.914 330.806L461.766 356.602C462.376 358.334 460.895 360.282 458.53 360.861L441.534 365.024C439.168 365.604 436.89 364.577 436.552 362.778L433.079 335.174C432.768 333.515 434.229 331.803 436.41 331.268Z" stroke="#1E191D" stroke-width="12.7097" stroke-linecap="round" stroke-linejoin="round"/>
<path d="M289.891 35.1978C346.862 39.3302 389.541 86.8103 385.216 141.249C380.892 195.688 331.203 236.468 274.231 232.336C217.26 228.204 174.582 180.724 178.906 126.285C183.231 71.8464 232.92 31.0656 289.891 35.1978Z" fill="url(#paint15_radial_92_505)"/>
<path d="M292.4 112.946C314.523 114.55 331.356 129.732 330.754 137.299C330.154 144.866 311.116 157.446 288.993 155.842C266.87 154.237 250.038 139.055 250.639 131.488C251.24 123.921 270.277 111.341 292.4 112.946Z" fill="url(#paint16_radial_92_505)"/>
<path d="M292.4 112.946C314.523 114.55 331.356 129.732 330.754 137.299C330.154 144.866 311.116 157.446 288.993 155.842C266.87 154.237 250.038 139.055 250.639 131.488C251.24 123.921 270.277 111.341 292.4 112.946Z" stroke="#254BFF" stroke-width="12.7088" stroke-linecap="round" stroke-linejoin="round"/>
<path d="M359.287 134.611L358.535 144.071C358.365 146.215 356.853 147.89 355.09 147.886L326.04 149.428C324.128 149.424 322.671 147.46 322.856 145.133L324.184 128.415C324.369 126.088 326.118 124.356 328.01 124.628L356.484 130.343C358.228 130.594 359.457 132.466 359.287 134.611Z" fill="#4F4756"/>
<path d="M359.287 134.611L358.535 144.071C358.365 146.215 356.853 147.89 355.09 147.886L326.04 149.428C324.128 149.424 322.671 147.46 322.856 145.133L324.184 128.415C324.369 126.088 326.118 124.356 328.01 124.628L356.484 130.343C358.228 130.594 359.457 132.466 359.287 134.611Z" stroke="#1E191D" stroke-width="12.7088" stroke-linecap="round" stroke-linejoin="round"/>
<path d="M110.735 311.077C142.552 265.731 206.814 253.618 254.27 284.021C301.726 314.423 314.404 375.83 282.586 421.176C250.769 466.522 186.506 478.636 139.051 448.233C91.5951 417.83 78.9175 356.423 110.735 311.077Z" fill="url(#paint17_radial_92_505)"/>
<path d="M182.786 347.274C195.141 329.665 217.257 323.143 223.854 327.369C230.45 331.595 232.534 353.622 220.179 371.231C207.824 388.84 185.708 395.363 179.111 391.136C172.515 386.911 170.431 364.883 182.786 347.274Z" fill="url(#paint18_radial_92_505)"/>
<path d="M182.786 347.274C195.141 329.665 217.257 323.143 223.854 327.369C230.45 331.595 232.534 353.622 220.179 371.231C207.824 388.84 185.708 395.363 179.111 391.136C172.515 386.911 170.431 364.883 182.786 347.274Z" stroke="#359E04" stroke-width="12.7094" stroke-linecap="round" stroke-linejoin="round"/>
<path d="M235.455 302.317L243.702 307.6C245.571 308.799 246.352 310.878 245.481 312.343L232.581 337.262C231.635 338.851 229.129 339.095 227.1 337.796L212.527 328.459C210.498 327.159 209.781 324.852 210.961 323.412L230.188 302.545C231.275 301.219 233.585 301.118 235.455 302.317Z" fill="#4F4756"/>
<path d="M235.455 302.317L243.702 307.6C245.571 308.799 246.352 310.878 245.481 312.343L232.581 337.262C231.635 338.851 229.129 339.095 227.1 337.796L212.527 328.459C210.498 327.159 209.781 324.852 210.961 323.412L230.188 302.545C231.275 301.219 233.585 301.118 235.455 302.317Z" stroke="#1E191D" stroke-width="12.7094" stroke-linecap="round" stroke-linejoin="round"/>
<path d="M685.591 164.974C674.508 218.532 620.087 253.364 564.037 242.774C507.988 232.184 471.535 180.183 482.618 126.625C493.7 73.0669 548.121 38.2341 604.17 48.8241C660.22 59.4141 696.674 111.416 685.591 164.974Z" fill="url(#paint19_radial_92_505)"/>
</g>
</g>
<g clip-path="url(#clip2_92_505)">
<mask id="mask2_92_505" style="mask-type:luminance" maskUnits="userSpaceOnUse" x="1024" y="0" width="512" height="512">
<path d="M1536 0H1024V512H1536V0Z" fill="white"/>
</mask>
<g mask="url(#mask2_92_505)">
<path d="M635.277 202.296C679.464 202.296 704.696 277.344 754.001 295.102C933.795 359.86 942.682 82.8318 891.814 110.507C884.63 114.415 880.698 123.239 879.779 134.676C876.135 179.992 892.084 312.344 966.212 323.964C1012.35 331.196 1036.73 225.345 1081.07 227.197C1105.69 228.225 1127.88 230.146 1150.06 239.199" stroke="#3F3644" stroke-width="12.7078" stroke-miterlimit="10"/>
<path d="M1150.06 239.199C1190.66 255.771 1216.7 277.344 1266 295.102C1445.79 359.86 1454.68 82.8318 1403.81 110.507C1396.63 114.415 1392.7 123.239 1391.78 134.676C1388.14 179.992 1404.08 312.344 1478.21 323.964C1524.35 331.196 1548.73 225.345 1593.07 227.197C1617.69 228.225 1635.14 202.296 1659.28 202.296" stroke="#3F3644" stroke-width="12.7078" stroke-miterlimit="10"/>
<path d="M872.144 425.974C857.957 373.089 891.322 319.228 946.667 305.671C1002.01 292.115 1058.38 323.997 1072.57 376.882C1086.75 429.767 1053.39 483.628 998.044 497.184C942.698 510.74 886.332 478.859 872.144 425.974Z" fill="url(#paint20_radial_92_505)"/>
<path d="M1197.59 164.974C1186.51 218.532 1132.09 253.364 1076.04 242.774C1019.99 232.184 983.535 180.183 994.618 126.625C1005.7 73.0669 1060.12 38.2341 1116.17 48.8241C1172.22 59.4141 1208.67 111.416 1197.59 164.974Z" fill="url(#paint21_radial_92_505)"/>
<path d="M1116.51 158.09C1112.2 178.888 1094.42 193.048 1086.63 191.576C1078.84 190.104 1068.04 170.544 1072.34 149.746C1076.64 128.949 1094.43 114.788 1102.22 116.26C1110.01 117.732 1120.81 137.293 1116.51 158.09Z" fill="url(#paint22_radial_92_505)"/>
<path d="M1116.51 158.09C1112.2 178.888 1094.42 193.048 1086.63 191.576C1078.84 190.104 1068.04 170.544 1072.34 149.746C1076.64 128.949 1094.43 114.788 1102.22 116.26C1110.01 117.732 1120.81 137.293 1116.51 158.09Z" stroke="#9F0702" stroke-width="12.7142" stroke-linecap="round" stroke-linejoin="round"/>
<path d="M1086.02 218.965L1076.28 217.125C1074.08 216.708 1072.52 215.075 1072.73 213.403L1074.59 185.658C1074.82 183.844 1077.04 182.696 1079.43 183.149L1096.64 186.401C1099.04 186.854 1100.63 188.72 1100.12 190.482L1090.79 216.815C1090.33 218.44 1088.23 219.382 1086.02 218.965Z" fill="#4F4756"/>
<path d="M1086.02 218.965L1076.28 217.125C1074.08 216.708 1072.52 215.075 1072.73 213.403L1074.59 185.658C1074.82 183.844 1077.04 182.696 1079.43 183.149L1096.64 186.401C1099.04 186.854 1100.63 188.72 1100.12 190.482L1090.79 216.815C1090.33 218.44 1088.23 219.382 1086.02 218.965Z" stroke="#1E191D" stroke-width="12.7142" stroke-linecap="round" stroke-linejoin="round"/>
<path d="M1384.14 425.974C1369.96 373.089 1403.32 319.228 1458.67 305.671C1514.01 292.115 1570.38 323.997 1584.57 376.882C1598.75 429.767 1565.39 483.628 1510.04 497.184C1454.7 510.74 1398.33 478.859 1384.14 425.974Z" fill="url(#paint23_radial_92_505)"/>
<path d="M1460.4 398.753C1454.89 378.216 1464.54 358.112 1472.23 356.227C1479.92 354.343 1498.5 367.535 1504.01 388.071C1509.52 408.608 1499.87 428.712 1492.18 430.597C1484.49 432.481 1465.91 419.289 1460.4 398.753Z" fill="url(#paint24_radial_92_505)"/>
<path d="M1460.4 398.753C1454.89 378.216 1464.54 358.112 1472.23 356.227C1479.92 354.343 1498.5 367.535 1504.01 388.071C1509.52 408.608 1499.87 428.712 1492.18 430.597C1484.49 432.481 1465.91 419.289 1460.4 398.753Z" stroke="#FDA300" stroke-width="12.7097" stroke-linecap="round" stroke-linejoin="round"/>
<path d="M1460.41 331.268L1470.03 328.913C1472.21 328.379 1474.35 329.209 1474.91 330.806L1485.77 356.602C1486.38 358.334 1484.9 360.282 1482.53 360.861L1465.53 365.024C1463.17 365.604 1460.89 364.577 1460.55 362.778L1457.08 335.174C1456.77 333.515 1458.23 331.803 1460.41 331.268Z" fill="#4F4756"/>
<path d="M1460.41 331.268L1470.03 328.913C1472.21 328.379 1474.35 329.209 1474.91 330.806L1485.77 356.602C1486.38 358.334 1484.9 360.282 1482.53 360.861L1465.53 365.024C1463.17 365.604 1460.89 364.577 1460.55 362.778L1457.08 335.174C1456.77 333.515 1458.23 331.803 1460.41 331.268Z" stroke="#1E191D" stroke-width="12.7097" stroke-linecap="round" stroke-linejoin="round"/>
<path d="M1313.89 35.1978C1370.86 39.3302 1413.54 86.8103 1409.22 141.249C1404.89 195.688 1355.2 236.468 1298.23 232.336C1241.26 228.204 1198.58 180.724 1202.91 126.285C1207.23 71.8464 1256.92 31.0656 1313.89 35.1978Z" fill="url(#paint25_radial_92_505)"/>
<path d="M1316.4 112.946C1338.52 114.55 1355.36 129.732 1354.75 137.299C1354.15 144.866 1335.12 157.446 1312.99 155.842C1290.87 154.237 1274.04 139.055 1274.64 131.488C1275.24 123.921 1294.28 111.341 1316.4 112.946Z" fill="url(#paint26_radial_92_505)"/>
<path d="M1316.4 112.946C1338.52 114.55 1355.36 129.732 1354.75 137.299C1354.15 144.866 1335.12 157.446 1312.99 155.842C1290.87 154.237 1274.04 139.055 1274.64 131.488C1275.24 123.921 1294.28 111.341 1316.4 112.946Z" stroke="#254BFF" stroke-width="12.7088" stroke-linecap="round" stroke-linejoin="round"/>
<path d="M1383.29 134.611L1382.53 144.071C1382.36 146.215 1380.85 147.89 1379.09 147.886L1350.04 149.428C1348.13 149.424 1346.67 147.46 1346.86 145.133L1348.18 128.415C1348.37 126.088 1350.12 124.356 1352.01 124.628L1380.48 130.343C1382.23 130.594 1383.46 132.466 1383.29 134.611Z" fill="#4F4756"/>
<path d="M1383.29 134.611L1382.53 144.071C1382.36 146.215 1380.85 147.89 1379.09 147.886L1350.04 149.428C1348.13 149.424 1346.67 147.46 1346.86 145.133L1348.18 128.415C1348.37 126.088 1350.12 124.356 1352.01 124.628L1380.48 130.343C1382.23 130.594 1383.46 132.466 1383.29 134.611Z" stroke="#1E191D" stroke-width="12.7088" stroke-linecap="round" stroke-linejoin="round"/>
<path d="M1134.73 311.077C1166.55 265.731 1230.81 253.618 1278.27 284.021C1325.73 314.423 1338.4 375.83 1306.59 421.176C1274.77 466.522 1210.51 478.636 1163.05 448.233C1115.6 417.83 1102.92 356.423 1134.73 311.077Z" fill="url(#paint27_radial_92_505)"/>
<path d="M1206.79 347.274C1219.14 329.665 1241.26 323.143 1247.85 327.369C1254.45 331.595 1256.53 353.622 1244.18 371.231C1231.82 388.84 1209.71 395.363 1203.11 391.136C1196.51 386.911 1194.43 364.883 1206.79 347.274Z" fill="url(#paint28_radial_92_505)"/>
<path d="M1206.79 347.274C1219.14 329.665 1241.26 323.143 1247.85 327.369C1254.45 331.595 1256.53 353.622 1244.18 371.231C1231.82 388.84 1209.71 395.363 1203.11 391.136C1196.51 386.911 1194.43 364.883 1206.79 347.274Z" stroke="#359E04" stroke-width="12.7094" stroke-linecap="round" stroke-linejoin="round"/>
<path d="M1259.45 302.317L1267.7 307.6C1269.57 308.799 1270.35 310.878 1269.48 312.343L1256.58 337.262C1255.63 338.851 1253.13 339.095 1251.1 337.796L1236.53 328.459C1234.5 327.159 1233.78 324.852 1234.96 323.412L1254.19 302.545C1255.27 301.219 1257.59 301.118 1259.45 302.317Z" fill="#4F4756"/>
<path d="M1259.45 302.317L1267.7 307.6C1269.57 308.799 1270.35 310.878 1269.48 312.343L1256.58 337.262C1255.63 338.851 1253.13 339.095 1251.1 337.796L1236.53 328.459C1234.5 327.159 1233.78 324.852 1234.96 323.412L1254.19 302.545C1255.27 301.219 1257.59 301.118 1259.45 302.317Z" stroke="#1E191D" stroke-width="12.7094" stroke-linecap="round" stroke-linejoin="round"/>
<path d="M1709.59 164.974C1698.51 218.532 1644.09 253.364 1588.04 242.774C1531.99 232.184 1495.53 180.183 1506.62 126.625C1517.7 73.0669 1572.12 38.2341 1628.17 48.8241C1684.22 59.4141 1720.67 111.416 1709.59 164.974Z" fill="url(#paint29_radial_92_505)"/>
</g>
</g>
<g clip-path="url(#clip3_92_505)">
<mask id="mask3_92_505" style="mask-type:luminance" maskUnits="userSpaceOnUse" x="1536" y="0" width="512" height="512">
<path d="M2048 0H1536V512H2048V0Z" fill="white"/>
</mask>
<g mask="url(#mask3_92_505)">
<path d="M1147.28 202.296C1191.46 202.296 1216.7 277.344 1266 295.102C1445.79 359.86 1454.68 82.8318 1403.81 110.507C1396.63 114.415 1392.7 123.239 1391.78 134.676C1388.14 179.992 1404.08 312.344 1478.21 323.964C1524.35 331.196 1548.73 225.345 1593.07 227.197C1617.69 228.225 1639.88 230.146 1662.06 239.199" stroke="#3F3644" stroke-width="12.7078" stroke-miterlimit="10"/>
<path d="M1662.06 239.199C1702.66 255.771 1728.7 277.344 1778 295.102C1957.79 359.86 1966.68 82.8318 1915.81 110.507C1908.63 114.415 1904.7 123.239 1903.78 134.676C1900.14 179.992 1916.08 312.344 1990.21 323.964C2036.35 331.196 2060.73 225.345 2105.07 227.197C2129.69 228.225 2147.14 202.296 2171.28 202.296" stroke="#3F3644" stroke-width="12.7078" stroke-miterlimit="10"/>
<path d="M1384.14 425.974C1369.96 373.089 1403.32 319.228 1458.67 305.671C1514.01 292.115 1570.38 323.997 1584.57 376.882C1598.75 429.767 1565.39 483.628 1510.04 497.184C1454.7 510.74 1398.33 478.859 1384.14 425.974Z" fill="url(#paint30_radial_92_505)"/>
<path d="M1709.59 164.974C1698.51 218.532 1644.09 253.364 1588.04 242.774C1531.99 232.184 1495.53 180.183 1506.62 126.625C1517.7 73.0669 1572.12 38.2341 1628.17 48.8241C1684.22 59.4141 1720.67 111.416 1709.59 164.974Z" fill="url(#paint31_radial_92_505)"/>
<path d="M1628.51 158.09C1624.2 178.888 1606.42 193.048 1598.63 191.576C1590.84 190.104 1580.04 170.544 1584.34 149.746C1588.64 128.949 1606.43 114.788 1614.22 116.26C1622.01 117.732 1632.81 137.293 1628.51 158.09Z" fill="url(#paint32_radial_92_505)"/>
<path d="M1628.51 158.09C1624.2 178.888 1606.42 193.048 1598.63 191.576C1590.84 190.104 1580.04 170.544 1584.34 149.746C1588.64 128.949 1606.43 114.788 1614.22 116.26C1622.01 117.732 1632.81 137.293 1628.51 158.09Z" stroke="#9F0702" stroke-width="12.7142" stroke-linecap="round" stroke-linejoin="round"/>
<path d="M1598.02 218.965L1588.28 217.125C1586.08 216.708 1584.52 215.075 1584.73 213.403L1586.59 185.658C1586.82 183.844 1589.04 182.696 1591.43 183.149L1608.64 186.401C1611.04 186.854 1612.63 188.72 1612.12 190.482L1602.79 216.815C1602.33 218.44 1600.23 219.382 1598.02 218.965Z" fill="#4F4756"/>
<path d="M1598.02 218.965L1588.28 217.125C1586.08 216.708 1584.52 215.075 1584.73 213.403L1586.59 185.658C1586.82 183.844 1589.04 182.696 1591.43 183.149L1608.64 186.401C1611.04 186.854 1612.63 188.72 1612.12 190.482L1602.79 216.815C1602.33 218.44 1600.23 219.382 1598.02 218.965Z" stroke="#1E191D" stroke-width="12.7142" stroke-linecap="round" stroke-linejoin="round"/>
<path d="M1896.14 425.974C1881.96 373.089 1915.32 319.228 1970.67 305.671C2026.01 292.115 2082.38 323.997 2096.57 376.882C2110.75 429.767 2077.39 483.628 2022.04 497.184C1966.7 510.74 1910.33 478.859 1896.14 425.974Z" fill="url(#paint33_radial_92_505)"/>
<path d="M1972.4 398.753C1966.89 378.216 1976.54 358.112 1984.23 356.227C1991.92 354.343 2010.5 367.535 2016.01 388.071C2021.52 408.608 2011.87 428.712 2004.18 430.597C1996.49 432.481 1977.91 419.289 1972.4 398.753Z" fill="url(#paint34_radial_92_505)"/>
<path d="M1972.4 398.753C1966.89 378.216 1976.54 358.112 1984.23 356.227C1991.92 354.343 2010.5 367.535 2016.01 388.071C2021.52 408.608 2011.87 428.712 2004.18 430.597C1996.49 432.481 1977.91 419.289 1972.4 398.753Z" stroke="#FDA300" stroke-width="12.7097" stroke-linecap="round" stroke-linejoin="round"/>
<path d="M1972.41 331.268L1982.03 328.913C1984.21 328.379 1986.35 329.209 1986.91 330.806L1997.77 356.602C1998.38 358.334 1996.9 360.282 1994.53 360.861L1977.53 365.024C1975.17 365.604 1972.89 364.577 1972.55 362.778L1969.08 335.174C1968.77 333.515 1970.23 331.803 1972.41 331.268Z" fill="#4F4756"/>
<path d="M1972.41 331.268L1982.03 328.913C1984.21 328.379 1986.35 329.209 1986.91 330.806L1997.77 356.602C1998.38 358.334 1996.9 360.282 1994.53 360.861L1977.53 365.024C1975.17 365.604 1972.89 364.577 1972.55 362.778L1969.08 335.174C1968.77 333.515 1970.23 331.803 1972.41 331.268Z" stroke="#1E191D" stroke-width="12.7097" stroke-linecap="round" stroke-linejoin="round"/>
<path d="M1825.89 35.1978C1882.86 39.3302 1925.54 86.8103 1921.22 141.249C1916.89 195.688 1867.2 236.468 1810.23 232.336C1753.26 228.204 1710.58 180.724 1714.91 126.285C1719.23 71.8464 1768.92 31.0656 1825.89 35.1978Z" fill="url(#paint35_radial_92_505)"/>
<path d="M1828.4 112.946C1850.52 114.55 1867.36 129.732 1866.75 137.299C1866.15 144.866 1847.12 157.446 1824.99 155.842C1802.87 154.237 1786.04 139.055 1786.64 131.488C1787.24 123.921 1806.28 111.341 1828.4 112.946Z" fill="url(#paint36_radial_92_505)"/>
<path d="M1828.4 112.946C1850.52 114.55 1867.36 129.732 1866.75 137.299C1866.15 144.866 1847.12 157.446 1824.99 155.842C1802.87 154.237 1786.04 139.055 1786.64 131.488C1787.24 123.921 1806.28 111.341 1828.4 112.946Z" stroke="#254BFF" stroke-width="12.7088" stroke-linecap="round" stroke-linejoin="round"/>
<path d="M1895.29 134.611L1894.53 144.071C1894.36 146.215 1892.85 147.89 1891.09 147.886L1862.04 149.428C1860.13 149.424 1858.67 147.46 1858.86 145.133L1860.18 128.415C1860.37 126.088 1862.12 124.356 1864.01 124.628L1892.48 130.343C1894.23 130.594 1895.46 132.466 1895.29 134.611Z" fill="#4F4756"/>
<path d="M1895.29 134.611L1894.53 144.071C1894.36 146.215 1892.85 147.89 1891.09 147.886L1862.04 149.428C1860.13 149.424 1858.67 147.46 1858.86 145.133L1860.18 128.415C1860.37 126.088 1862.12 124.356 1864.01 124.628L1892.48 130.343C1894.23 130.594 1895.46 132.466 1895.29 134.611Z" stroke="#1E191D" stroke-width="12.7088" stroke-linecap="round" stroke-linejoin="round"/>
<path d="M1646.73 311.077C1678.55 265.731 1742.81 253.618 1790.27 284.021C1837.73 314.423 1850.4 375.83 1818.59 421.176C1786.77 466.522 1722.51 478.636 1675.05 448.233C1627.6 417.83 1614.92 356.423 1646.73 311.077Z" fill="url(#paint37_radial_92_505)"/>
<path d="M1718.79 347.274C1731.14 329.665 1753.26 323.143 1759.85 327.369C1766.45 331.595 1768.53 353.622 1756.18 371.231C1743.82 388.84 1721.71 395.363 1715.11 391.136C1708.51 386.911 1706.43 364.883 1718.79 347.274Z" fill="url(#paint38_radial_92_505)"/>
<path d="M1718.79 347.274C1731.14 329.665 1753.26 323.143 1759.85 327.369C1766.45 331.595 1768.53 353.622 1756.18 371.231C1743.82 388.84 1721.71 395.363 1715.11 391.136C1708.51 386.911 1706.43 364.883 1718.79 347.274Z" stroke="#359E04" stroke-width="12.7094" stroke-linecap="round" stroke-linejoin="round"/>
<path d="M1771.45 302.317L1779.7 307.6C1781.57 308.799 1782.35 310.878 1781.48 312.343L1768.58 337.262C1767.63 338.851 1765.13 339.095 1763.1 337.796L1748.53 328.459C1746.5 327.159 1745.78 324.852 1746.96 323.412L1766.19 302.545C1767.27 301.219 1769.59 301.118 1771.45 302.317Z" fill="#4F4756"/>
<path d="M1771.45 302.317L1779.7 307.6C1781.57 308.799 1782.35 310.878 1781.48 312.343L1768.58 337.262C1767.63 338.851 1765.13 339.095 1763.1 337.796L1748.53 328.459C1746.5 327.159 1745.78 324.852 1746.96 323.412L1766.19 302.545C1767.27 301.219 1769.59 301.118 1771.45 302.317Z" stroke="#1E191D" stroke-width="12.7094" stroke-linecap="round" stroke-linejoin="round"/>
<path d="M2221.59 164.974C2210.51 218.532 2156.09 253.364 2100.04 242.774C2043.99 232.184 2007.53 180.183 2018.62 126.625C2029.7 73.0669 2084.12 38.2341 2140.17 48.8241C2196.22 59.4141 2232.67 111.416 2221.59 164.974Z" fill="url(#paint39_radial_92_505)"/>
</g>
</g>
<defs>
<radialGradient id="paint0_radial_92_505" cx="0" cy="0" r="1" gradientTransform="matrix(105.315 29.3788 -30.7455 100.633 461.576 401.733)" gradientUnits="userSpaceOnUse">
<stop stop-color="#FDFF27"/>
<stop offset="0.31" stop-color="#FDFF27" stop-opacity="0.5"/>
<stop offset="0.62" stop-color="#FDFF27" stop-opacity="0"/>
</radialGradient>
<radialGradient id="paint1_radial_92_505" cx="0" cy="0" r="1" gradientTransform="matrix(69.2117 74.752 -78.2296 66.135 584.243 148.714)" gradientUnits="userSpaceOnUse">
<stop stop-color="#FD3227"/>
<stop offset="0.31" stop-color="#FD3227" stop-opacity="0.5"/>
<stop offset="0.62" stop-color="#FD3227" stop-opacity="0"/>
</radialGradient>
<radialGradient id="paint2_radial_92_505" cx="0" cy="0" r="1" gradientTransform="matrix(22.1947 23.9713 -25.0865 21.2081 583.235 153.394)" gradientUnits="userSpaceOnUse">
<stop stop-color="#FDA37D"/>
<stop offset="0.31" stop-color="#FD6B52"/>
<stop offset="0.62" stop-color="#FD3227"/>
</radialGradient>
<radialGradient id="paint3_radial_92_505" cx="0" cy="0" r="1" gradientTransform="matrix(105.315 29.3788 -30.7455 100.633 973.576 401.733)" gradientUnits="userSpaceOnUse">
<stop stop-color="#FDFF27"/>
<stop offset="0.31" stop-color="#FDFF27" stop-opacity="0.5"/>
<stop offset="0.62" stop-color="#FDFF27" stop-opacity="0"/>
</radialGradient>
<radialGradient id="paint4_radial_92_505" cx="0" cy="0" r="1" gradientTransform="matrix(37.1979 10.3768 -10.8595 35.5443 969.499 394.623)" gradientUnits="userSpaceOnUse">
<stop stop-color="#FFFC93"/>
<stop offset="0.31" stop-color="#FEDE5D"/>
<stop offset="0.62" stop-color="#FDC027"/>
</radialGradient>
<radialGradient id="paint5_radial_92_505" cx="0" cy="0" r="1" gradientTransform="matrix(103.907 -20.9568 21.9318 99.2874 797.777 132.451)" gradientUnits="userSpaceOnUse">
<stop stop-color="#1388FF"/>
<stop offset="0.31" stop-color="#1388FF" stop-opacity="0.5"/>
<stop offset="0.62" stop-color="#1388FF" stop-opacity="0"/>
</radialGradient>
<radialGradient id="paint6_radial_92_505" cx="0" cy="0" r="1" gradientTransform="matrix(37.1068 -7.48403 7.8322 35.4572 801.897 132.597)" gradientUnits="userSpaceOnUse">
<stop stop-color="#A7FEFF"/>
<stop offset="0.31" stop-color="#73C0FF"/>
<stop offset="0.62" stop-color="#3F81FF"/>
</radialGradient>
<radialGradient id="paint7_radial_92_505" cx="0" cy="0" r="1" gradientTransform="matrix(102.387 25.9968 -27.2062 97.8351 710.778 364.793)" gradientUnits="userSpaceOnUse">
<stop stop-color="#A0FF27"/>
<stop offset="0.31" stop-color="#A0FF27" stop-opacity="0.5"/>
<stop offset="0.62" stop-color="#A0FF27" stop-opacity="0"/>
</radialGradient>
<radialGradient id="paint8_radial_92_505" cx="0" cy="0" r="1" gradientTransform="matrix(37.9351 9.63204 -10.0801 36.2487 712.514 362.268)" gradientUnits="userSpaceOnUse">
<stop offset="0.06" stop-color="#DAFD74"/>
<stop offset="0.34" stop-color="#A4F13E"/>
<stop offset="0.62" stop-color="#6EE508"/>
</radialGradient>
<radialGradient id="paint9_radial_92_505" cx="0" cy="0" r="1" gradientTransform="matrix(69.2117 74.752 -78.2296 66.135 1096.24 148.714)" gradientUnits="userSpaceOnUse">
<stop stop-color="#FD3227"/>
<stop offset="0.31" stop-color="#FD3227" stop-opacity="0.5"/>
<stop offset="0.62" stop-color="#FD3227" stop-opacity="0"/>
</radialGradient>
<radialGradient id="paint10_radial_92_505" cx="0" cy="0" r="1" gradientTransform="matrix(105.315 29.3788 -30.7455 100.633 -50.4241 401.733)" gradientUnits="userSpaceOnUse">
<stop stop-color="#FDFF27"/>
<stop offset="0.31" stop-color="#FDFF27" stop-opacity="0.5"/>
<stop offset="0.62" stop-color="#FDFF27" stop-opacity="0"/>
</radialGradient>
<radialGradient id="paint11_radial_92_505" cx="0" cy="0" r="1" gradientTransform="matrix(69.2117 74.752 -78.2296 66.135 72.2431 148.714)" gradientUnits="userSpaceOnUse">
<stop stop-color="#FD3227"/>
<stop offset="0.31" stop-color="#FD3227" stop-opacity="0.5"/>
<stop offset="0.62" stop-color="#FD3227" stop-opacity="0"/>
</radialGradient>
<radialGradient id="paint12_radial_92_505" cx="0" cy="0" r="1" gradientTransform="matrix(22.1947 23.9713 -25.0865 21.2081 71.2352 153.394)" gradientUnits="userSpaceOnUse">
<stop stop-color="#FDA37D"/>
<stop offset="0.31" stop-color="#FD6B52"/>
<stop offset="0.62" stop-color="#FD3227"/>
</radialGradient>
<radialGradient id="paint13_radial_92_505" cx="0" cy="0" r="1" gradientTransform="matrix(105.315 29.3788 -30.7455 100.633 461.576 401.733)" gradientUnits="userSpaceOnUse">
<stop stop-color="#FDFF27"/>
<stop offset="0.31" stop-color="#FDFF27" stop-opacity="0.5"/>
<stop offset="0.62" stop-color="#FDFF27" stop-opacity="0"/>
</radialGradient>
<radialGradient id="paint14_radial_92_505" cx="0" cy="0" r="1" gradientTransform="matrix(37.1979 10.3768 -10.8595 35.5443 457.499 394.623)" gradientUnits="userSpaceOnUse">
<stop stop-color="#FFFC93"/>
<stop offset="0.31" stop-color="#FEDE5D"/>
<stop offset="0.62" stop-color="#FDC027"/>
</radialGradient>
<radialGradient id="paint15_radial_92_505" cx="0" cy="0" r="1" gradientTransform="matrix(103.907 -20.9568 21.9318 99.2874 285.777 132.451)" gradientUnits="userSpaceOnUse">
<stop stop-color="#1388FF"/>
<stop offset="0.31" stop-color="#1388FF" stop-opacity="0.5"/>
<stop offset="0.62" stop-color="#1388FF" stop-opacity="0"/>
</radialGradient>
<radialGradient id="paint16_radial_92_505" cx="0" cy="0" r="1" gradientTransform="matrix(37.1068 -7.48403 7.8322 35.4572 289.897 132.597)" gradientUnits="userSpaceOnUse">
<stop stop-color="#A7FEFF"/>
<stop offset="0.31" stop-color="#73C0FF"/>
<stop offset="0.62" stop-color="#3F81FF"/>
</radialGradient>
<radialGradient id="paint17_radial_92_505" cx="0" cy="0" r="1" gradientTransform="matrix(102.387 25.9968 -27.2062 97.8351 198.778 364.793)" gradientUnits="userSpaceOnUse">
<stop stop-color="#A0FF27"/>
<stop offset="0.31" stop-color="#A0FF27" stop-opacity="0.5"/>
<stop offset="0.62" stop-color="#A0FF27" stop-opacity="0"/>
</radialGradient>
<radialGradient id="paint18_radial_92_505" cx="0" cy="0" r="1" gradientTransform="matrix(37.9351 9.63204 -10.0801 36.2487 200.514 362.268)" gradientUnits="userSpaceOnUse">
<stop offset="0.06" stop-color="#DAFD74"/>
<stop offset="0.34" stop-color="#A4F13E"/>
<stop offset="0.62" stop-color="#6EE508"/>
</radialGradient>
<radialGradient id="paint19_radial_92_505" cx="0" cy="0" r="1" gradientTransform="matrix(69.2117 74.752 -78.2296 66.135 584.243 148.714)" gradientUnits="userSpaceOnUse">
<stop stop-color="#FD3227"/>
<stop offset="0.31" stop-color="#FD3227" stop-opacity="0.5"/>
<stop offset="0.62" stop-color="#FD3227" stop-opacity="0"/>
</radialGradient>
<radialGradient id="paint20_radial_92_505" cx="0" cy="0" r="1" gradientTransform="matrix(105.315 29.3788 -30.7455 100.633 973.576 401.733)" gradientUnits="userSpaceOnUse">
<stop stop-color="#FDFF27"/>
<stop offset="0.31" stop-color="#FDFF27" stop-opacity="0.5"/>
<stop offset="0.62" stop-color="#FDFF27" stop-opacity="0"/>
</radialGradient>
<radialGradient id="paint21_radial_92_505" cx="0" cy="0" r="1" gradientTransform="matrix(69.2117 74.752 -78.2296 66.135 1096.24 148.714)" gradientUnits="userSpaceOnUse">
<stop stop-color="#FD3227"/>
<stop offset="0.31" stop-color="#FD3227" stop-opacity="0.5"/>
<stop offset="0.62" stop-color="#FD3227" stop-opacity="0"/>
</radialGradient>
<radialGradient id="paint22_radial_92_505" cx="0" cy="0" r="1" gradientTransform="matrix(22.1947 23.9713 -25.0865 21.2081 1095.24 153.394)" gradientUnits="userSpaceOnUse">
<stop stop-color="#FDA37D"/>
<stop offset="0.31" stop-color="#FD6B52"/>
<stop offset="0.62" stop-color="#FD3227"/>
</radialGradient>
<radialGradient id="paint23_radial_92_505" cx="0" cy="0" r="1" gradientTransform="matrix(105.315 29.3788 -30.7455 100.633 1485.58 401.733)" gradientUnits="userSpaceOnUse">
<stop stop-color="#FDFF27"/>
<stop offset="0.31" stop-color="#FDFF27" stop-opacity="0.5"/>
<stop offset="0.62" stop-color="#FDFF27" stop-opacity="0"/>
</radialGradient>
<radialGradient id="paint24_radial_92_505" cx="0" cy="0" r="1" gradientTransform="matrix(37.1979 10.3768 -10.8595 35.5443 1481.5 394.623)" gradientUnits="userSpaceOnUse">
<stop stop-color="#FFFC93"/>
<stop offset="0.31" stop-color="#FEDE5D"/>
<stop offset="0.62" stop-color="#FDC027"/>
</radialGradient>
<radialGradient id="paint25_radial_92_505" cx="0" cy="0" r="1" gradientTransform="matrix(103.907 -20.9568 21.9318 99.2874 1309.78 132.451)" gradientUnits="userSpaceOnUse">
<stop stop-color="#1388FF"/>
<stop offset="0.31" stop-color="#1388FF" stop-opacity="0.5"/>
<stop offset="0.62" stop-color="#1388FF" stop-opacity="0"/>
</radialGradient>
<radialGradient id="paint26_radial_92_505" cx="0" cy="0" r="1" gradientTransform="matrix(37.1068 -7.48403 7.8322 35.4572 1313.9 132.597)" gradientUnits="userSpaceOnUse">
<stop stop-color="#A7FEFF"/>
<stop offset="0.31" stop-color="#73C0FF"/>
<stop offset="0.62" stop-color="#3F81FF"/>
</radialGradient>
<radialGradient id="paint27_radial_92_505" cx="0" cy="0" r="1" gradientTransform="matrix(102.387 25.9968 -27.2062 97.8351 1222.78 364.793)" gradientUnits="userSpaceOnUse">
<stop stop-color="#A0FF27"/>
<stop offset="0.31" stop-color="#A0FF27" stop-opacity="0.5"/>
<stop offset="0.62" stop-color="#A0FF27" stop-opacity="0"/>
</radialGradient>
<radialGradient id="paint28_radial_92_505" cx="0" cy="0" r="1" gradientTransform="matrix(37.9351 9.63204 -10.0801 36.2487 1224.51 362.268)" gradientUnits="userSpaceOnUse">
<stop offset="0.06" stop-color="#DAFD74"/>
<stop offset="0.34" stop-color="#A4F13E"/>
<stop offset="0.62" stop-color="#6EE508"/>
</radialGradient>
<radialGradient id="paint29_radial_92_505" cx="0" cy="0" r="1" gradientTransform="matrix(69.2117 74.752 -78.2296 66.135 1608.24 148.714)" gradientUnits="userSpaceOnUse">
<stop stop-color="#FD3227"/>
<stop offset="0.31" stop-color="#FD3227" stop-opacity="0.5"/>
<stop offset="0.62" stop-color="#FD3227" stop-opacity="0"/>
</radialGradient>
<radialGradient id="paint30_radial_92_505" cx="0" cy="0" r="1" gradientTransform="matrix(105.315 29.3788 -30.7455 100.633 1485.58 401.733)" gradientUnits="userSpaceOnUse">
<stop stop-color="#FDFF27"/>
<stop offset="0.31" stop-color="#FDFF27" stop-opacity="0.5"/>
<stop offset="0.62" stop-color="#FDFF27" stop-opacity="0"/>
</radialGradient>
<radialGradient id="paint31_radial_92_505" cx="0" cy="0" r="1" gradientTransform="matrix(69.2117 74.752 -78.2296 66.135 1608.24 148.714)" gradientUnits="userSpaceOnUse">
<stop stop-color="#FD3227"/>
<stop offset="0.31" stop-color="#FD3227" stop-opacity="0.5"/>
<stop offset="0.62" stop-color="#FD3227" stop-opacity="0"/>
</radialGradient>
<radialGradient id="paint32_radial_92_505" cx="0" cy="0" r="1" gradientTransform="matrix(22.1947 23.9713 -25.0865 21.2081 1607.24 153.394)" gradientUnits="userSpaceOnUse">
<stop stop-color="#FDA37D"/>
<stop offset="0.31" stop-color="#FD6B52"/>
<stop offset="0.62" stop-color="#FD3227"/>
</radialGradient>
<radialGradient id="paint33_radial_92_505" cx="0" cy="0" r="1" gradientTransform="matrix(105.315 29.3788 -30.7455 100.633 1997.58 401.733)" gradientUnits="userSpaceOnUse">
<stop stop-color="#FDFF27"/>
<stop offset="0.31" stop-color="#FDFF27" stop-opacity="0.5"/>
<stop offset="0.62" stop-color="#FDFF27" stop-opacity="0"/>
</radialGradient>
<radialGradient id="paint34_radial_92_505" cx="0" cy="0" r="1" gradientTransform="matrix(37.1979 10.3768 -10.8595 35.5443 1993.5 394.623)" gradientUnits="userSpaceOnUse">
<stop stop-color="#FFFC93"/>
<stop offset="0.31" stop-color="#FEDE5D"/>
<stop offset="0.62" stop-color="#FDC027"/>
</radialGradient>
<radialGradient id="paint35_radial_92_505" cx="0" cy="0" r="1" gradientTransform="matrix(103.907 -20.9568 21.9318 99.2874 1821.78 132.451)" gradientUnits="userSpaceOnUse">
<stop stop-color="#1388FF"/>
<stop offset="0.31" stop-color="#1388FF" stop-opacity="0.5"/>
<stop offset="0.62" stop-color="#1388FF" stop-opacity="0"/>
</radialGradient>
<radialGradient id="paint36_radial_92_505" cx="0" cy="0" r="1" gradientTransform="matrix(37.1068 -7.48403 7.8322 35.4572 1825.9 132.597)" gradientUnits="userSpaceOnUse">
<stop stop-color="#A7FEFF"/>
<stop offset="0.31" stop-color="#73C0FF"/>
<stop offset="0.62" stop-color="#3F81FF"/>
</radialGradient>
<radialGradient id="paint37_radial_92_505" cx="0" cy="0" r="1" gradientTransform="matrix(102.387 25.9968 -27.2062 97.8351 1734.78 364.793)" gradientUnits="userSpaceOnUse">
<stop stop-color="#A0FF27"/>
<stop offset="0.31" stop-color="#A0FF27" stop-opacity="0.5"/>
<stop offset="0.62" stop-color="#A0FF27" stop-opacity="0"/>
</radialGradient>
<radialGradient id="paint38_radial_92_505" cx="0" cy="0" r="1" gradientTransform="matrix(37.9351 9.63204 -10.0801 36.2487 1736.51 362.268)" gradientUnits="userSpaceOnUse">
<stop offset="0.06" stop-color="#DAFD74"/>
<stop offset="0.34" stop-color="#A4F13E"/>
<stop offset="0.62" stop-color="#6EE508"/>
</radialGradient>
<radialGradient id="paint39_radial_92_505" cx="0" cy="0" r="1" gradientTransform="matrix(69.2117 74.752 -78.2296 66.135 2120.24 148.714)" gradientUnits="userSpaceOnUse">
<stop stop-color="#FD3227"/>
<stop offset="0.31" stop-color="#FD3227" stop-opacity="0.5"/>
<stop offset="0.62" stop-color="#FD3227" stop-opacity="0"/>
</radialGradient>
<clipPath id="clip0_92_505">
<rect width="512" height="512" fill="white" transform="translate(512)"/>
</clipPath>
<clipPath id="clip1_92_505">
<rect width="512" height="512" fill="white"/>
</clipPath>
<clipPath id="clip2_92_505">
<rect width="512" height="512" fill="white" transform="translate(1024)"/>
</clipPath>
<clipPath id="clip3_92_505">
<rect width="512" height="512" fill="white" transform="translate(1536)"/>
</clipPath>
</defs>
</svg>
